<svg width="137" height="75" viewBox="0 0 137 75" fill="none" xmlns="http://www.w3.org/2000/svg">
<mask id="mask0_1660_963" style="mask-type:luminance" maskUnits="userSpaceOnUse" x="0" y="-28" width="137" height="103">
<path d="M0 -28H136.8V75H0V-28Z" fill="white"/>
</mask>
<g mask="url(#mask0_1660_963)">
<path d="M77.2338 22.7728H75.5347V15.5914H79.3882L77.2338 22.7728ZM76.8443 23.7908C76.7064 23.9452 76.59 24.0996 76.4971 24.2412L76.497 24.2414C76.4169 24.3642 76.3523 24.4777 76.3011 24.5758H73.7213C73.6197 24.381 73.4643 24.1239 73.2412 23.8597L73.241 23.8594C73.2215 23.8366 73.1992 23.8136 73.1787 23.7908H76.8443ZM72.1734 13.5923C72.4706 13.1514 72.7303 12.7283 73.0334 12.3937L73.0336 12.3933C73.5209 11.8503 74.258 11.5376 75.0059 11.5379H75.006H75.0077C75.1335 11.538 75.2595 11.5467 75.3846 11.5644C75.7943 11.6229 76.1487 11.7674 76.4737 11.9841C76.7973 12.2004 77.0886 12.4913 77.345 12.836C77.6069 13.1867 77.8597 13.5984 78.1665 14.0024C78.3152 14.1976 78.4805 14.3909 78.6666 14.5734H71.3762C71.6994 14.2646 71.9494 13.922 72.1732 13.5926L72.1734 13.5923ZM72.7012 22.7728L70.6268 15.5914H74.4877V22.7728H72.7012ZM81.2759 52.1459H75.7237L75.7235 35.2785L81.2759 39.084V52.1459ZM67.4357 36.2406V52.146H62.003L62.003 25.888L67.4356 22.7162L67.4357 28.1865L67.435 28.1858V32.9662V34.3361V36.2406H67.4357ZM75.7235 34.033L75.7234 25.5938H77.0112L77.1359 25.2488C77.1388 25.2413 77.1494 25.2147 77.1666 25.1767C77.2269 25.042 77.3724 24.7566 77.6042 24.4896L77.6045 24.4893C77.7643 24.3039 77.9636 24.1273 78.1987 24.0006C78.4362 23.8735 78.7051 23.7917 79.0464 23.7908L79.2006 23.7906V22.7728H78.3245L80.479 15.5914H80.9113C80.9374 15.5924 80.9706 15.5956 81.0118 15.5957C81.0574 15.5957 81.1019 15.5938 81.1453 15.5914H82.0076V14.5734H80.9221C80.7686 14.5644 80.608 14.5344 80.4481 14.4839C80.2555 14.4233 80.0636 14.3354 79.8899 14.2334C79.5522 14.0358 79.2751 13.7477 79.0082 13.3969C78.7415 13.0477 78.4907 12.6398 78.1933 12.2393C77.8808 11.8196 77.5096 11.4414 77.0671 11.1454C76.6252 10.8492 76.1107 10.6379 75.5351 10.557C75.491 10.5507 75.4471 10.5479 75.4031 10.5434V7.95259H74.3559V10.5805C73.5512 10.7197 72.7986 11.1101 72.2459 11.7227C71.8576 12.155 71.5784 12.6213 71.2987 13.0325L71.2985 13.0328C71.0194 13.4462 70.7428 13.8027 70.3937 14.0602C70.1921 14.2098 69.9586 14.3426 69.7204 14.4345C69.5096 14.5161 69.2951 14.5635 69.0915 14.5734H67.7514V15.5914H68.8759C68.9211 15.5939 68.9673 15.5958 69.0149 15.5958C69.0638 15.5958 69.1117 15.594 69.159 15.5914H69.5393L71.6136 22.7728H70.8219V23.7905L70.976 23.7908C71.3227 23.7917 71.5948 23.8761 71.835 24.0068C72.1907 24.2005 72.4653 24.5156 72.6413 24.787L72.6415 24.7873C72.7299 24.9225 72.7943 25.0454 72.8348 25.1312C72.8552 25.1743 72.8697 25.208 72.8784 25.2293L72.878 25.2282L72.8875 25.2517L72.8885 25.2544L72.8892 25.2565L73.0111 25.5938H74.6763L74.6763 33.3154L68.4828 29.0709V20.9174L62.003 24.7005V23.7785V23.2822V17.6245H60.956V23.2822V23.7785V25.3119L54.4775 29.0943V53.1639H55.5245V29.6705L60.956 26.4994V53.1639H67.9592H68.4828V34.1862H68.4821V33.1161H68.4828V32.965V30.3164L74.6764 34.5608L74.6765 53.1639H82.3229V38.5562L75.7235 34.033Z" fill="#DDB9A2"/>
</g>
<mask id="mask1_1660_963" style="mask-type:luminance" maskUnits="userSpaceOnUse" x="0" y="-28" width="137" height="103">
<path d="M0 -28H136.8V75H0V-28Z" fill="white"/>
</mask>
<g mask="url(#mask1_1660_963)">
<path d="M42.4812 62.1727L41.7582 60.2291C41.5865 59.7597 41.4471 59.2976 41.316 58.881H41.2925C41.1681 59.3026 41.0453 59.7695 40.8905 60.2208L40.1892 62.1727H42.4812ZM39.9221 63.2735L39.1624 65.5102H37.5708L40.377 57.7974H42.3487L45.2386 65.5102H43.5733L42.7565 63.2735H39.9221Z" fill="#DDB9A2"/>
</g>
<mask id="mask2_1660_963" style="mask-type:luminance" maskUnits="userSpaceOnUse" x="0" y="-28" width="137" height="103">
<path d="M0 -28H136.8V75H0V-28Z" fill="white"/>
</mask>
<g mask="url(#mask2_1660_963)">
<path d="M50.6377 57.7975H52.1523V64.2792H55.7955V65.5102H50.6377V57.7975Z" fill="#DDB9A2"/>
</g>
<mask id="mask3_1660_963" style="mask-type:luminance" maskUnits="userSpaceOnUse" x="0" y="-28" width="137" height="103">
<path d="M0 -28H136.8V75H0V-28Z" fill="white"/>
</mask>
<g mask="url(#mask3_1660_963)">
<path d="M61.1958 57.7975H62.7104V64.2792H66.3536V65.5102H61.1958V57.7975Z" fill="#DDB9A2"/>
</g>
<mask id="mask4_1660_963" style="mask-type:luminance" maskUnits="userSpaceOnUse" x="0" y="-28" width="137" height="103">
<path d="M0 -28H136.8V75H0V-28Z" fill="white"/>
</mask>
<g mask="url(#mask4_1660_963)">
<path d="M73.268 65.5102H71.7534V57.7975H73.268V65.5102Z" fill="#DDB9A2"/>
</g>
<mask id="mask5_1660_963" style="mask-type:luminance" maskUnits="userSpaceOnUse" x="0" y="-28" width="137" height="103">
<path d="M0 -28H136.8V75H0V-28Z" fill="white"/>
</mask>
<g mask="url(#mask5_1660_963)">
<path d="M79.2515 65.5102V57.7975H81.0723L83.3626 61.1138C83.9652 62.0163 84.4494 62.8768 84.8547 63.7458L84.8849 63.7359C84.769 62.7001 84.7573 61.7716 84.7573 60.6596V57.7975H86.1729V65.5102H84.5581L82.2447 62.0807C81.6676 61.1881 81.0824 60.2454 80.6385 59.3504L80.5966 59.3602C80.6554 60.3992 80.6671 61.3925 80.6671 62.5498V65.5102H79.2515Z" fill="#DDB9A2"/>
</g>
<mask id="mask6_1660_963" style="mask-type:luminance" maskUnits="userSpaceOnUse" x="0" y="-28" width="137" height="103">
<path d="M0 -28H136.8V75H0V-28Z" fill="white"/>
</mask>
<g mask="url(#mask6_1660_963)">
<path d="M96.4719 62.1727L95.7489 60.2291C95.5772 59.7597 95.4378 59.2976 95.3068 58.881H95.2832C95.1588 59.3026 95.036 59.7695 94.8812 60.2208L94.1799 62.1727H96.4719ZM93.9128 63.2735L93.1531 65.5102H91.5615L94.3678 57.7974H96.3394L99.2293 65.5102H97.564L96.7473 63.2735H93.9128Z" fill="#DDB9A2"/>
</g>
</svg> 