<svg width="244" height="189" viewBox="0 0 244 189" fill="none" xmlns="http://www.w3.org/2000/svg">
<mask id="mask0_385_1317" style="mask-type:luminance" maskUnits="userSpaceOnUse" x="-37" y="-67" width="281" height="306">
<path d="M-37 -66.2585H244V238.966H-37V-66.2585Z" fill="white"/>
</mask>
<g mask="url(#mask0_385_1317)">
<path d="M121.645 50.2608H118.155V33.7802H126.07L121.645 50.2608ZM120.845 52.597C120.562 52.9514 120.323 53.3059 120.132 53.6308L120.132 53.6312C119.967 53.913 119.834 54.1735 119.729 54.3986H114.43C114.221 53.9516 113.902 53.3614 113.444 52.7552L113.443 52.7545C113.404 52.7021 113.358 52.6495 113.316 52.597H120.845ZM111.251 29.1923C111.861 28.1804 112.395 27.2095 113.017 26.4416L113.018 26.4408C114.018 25.1947 115.533 24.477 117.069 24.4778H117.069H117.073C117.331 24.4779 117.59 24.4979 117.847 24.5385C118.688 24.6728 119.416 25.0044 120.084 25.5016C120.748 25.9981 121.347 26.6658 121.873 27.4567C122.411 28.2615 122.931 29.2063 123.561 30.1336C123.866 30.5815 124.206 31.0251 124.588 31.4439H109.613C110.277 30.7353 110.79 29.9491 111.25 29.193L111.251 29.1923ZM112.335 50.2608L108.074 33.7802H116.004V50.2608H112.335ZM129.948 117.67H118.543L118.543 78.9604L129.948 87.6938V117.67ZM101.519 81.1684V117.67H90.3596L90.3597 57.4101L101.519 50.1311L101.519 62.6848L101.518 62.6833V73.6538V76.7978V81.1684H101.519ZM118.543 76.102L118.543 56.7348H121.188L121.444 55.943C121.45 55.9259 121.472 55.8649 121.507 55.7776C121.631 55.4685 121.93 54.8135 122.406 54.2008L122.406 54.2002C122.735 53.7745 123.144 53.3694 123.627 53.0785C124.115 52.7868 124.667 52.5991 125.368 52.597L125.685 52.5965V50.2608H123.886L128.311 33.7802H129.199C129.253 33.7825 129.321 33.7897 129.405 33.79C129.499 33.79 129.591 33.7856 129.68 33.7802H131.451V31.4439H129.221C128.906 31.4233 128.576 31.3543 128.247 31.2385C127.852 31.0994 127.458 30.8977 127.101 30.6637C126.407 30.2102 125.838 29.5491 125.29 28.7439C124.742 27.9425 124.227 27.0064 123.616 26.0874C122.974 25.1241 122.212 24.2563 121.303 23.5769C120.395 22.8972 119.338 22.4123 118.156 22.2266C118.065 22.2121 117.975 22.2058 117.885 22.1954V16.2497H115.734V22.2804C114.081 22.6 112.535 23.496 111.399 24.9017C110.602 25.8938 110.028 26.964 109.454 27.9076L109.454 27.9083C108.88 28.8571 108.312 29.6753 107.595 30.2662C107.181 30.6094 106.701 30.9143 106.212 31.1252C105.779 31.3125 105.338 31.4213 104.92 31.4439H102.167V33.7802H104.477C104.57 33.7859 104.665 33.7903 104.763 33.7903C104.863 33.7903 104.962 33.7862 105.059 33.7802H105.84L110.101 50.2608H108.474V52.5964L108.791 52.597C109.503 52.5991 110.062 52.7928 110.555 53.0928C111.286 53.5372 111.85 54.2605 112.212 54.8833L112.212 54.8839C112.394 55.1941 112.526 55.4763 112.609 55.6732C112.651 55.7721 112.681 55.8495 112.699 55.8983L112.698 55.8959L112.717 55.9497L112.719 55.956L112.721 55.9607L112.971 56.7348H116.392L116.392 74.4552L103.67 64.7145V46.0028L90.3597 54.6849V52.5688V51.4298V38.446H88.2091V51.4298V52.5688V56.0878L74.9016 64.7683V120.006H77.0522V66.0905L88.2091 58.813V120.006H102.594H103.67V76.4536H103.668V73.9979H103.67V73.6512V67.5728L116.392 77.3134L116.392 120.006H132.099V86.4824L118.543 76.102Z" fill="#DDB9A2"/>
</g>
<mask id="mask1_385_1317" style="mask-type:luminance" maskUnits="userSpaceOnUse" x="-37" y="-67" width="281" height="306">
<path d="M-37 -66.2585H244V238.966H-37V-66.2585Z" fill="white"/>
</mask>
<g mask="url(#mask1_385_1317)">
<path d="M50.2607 140.68L48.7756 136.22C48.4229 135.143 48.1366 134.082 47.8674 133.126H47.8191C47.5635 134.094 47.3113 135.165 46.9932 136.201L45.5528 140.68H50.2607ZM45.0041 143.207L43.4436 148.34H40.1743L45.9386 130.64H49.9885L55.9246 148.34H52.504L50.8263 143.207H45.0041Z" fill="#DDB9A2"/>
</g>
<mask id="mask2_385_1317" style="mask-type:luminance" maskUnits="userSpaceOnUse" x="-37" y="-67" width="281" height="306">
<path d="M-37 -66.2585H244V238.966H-37V-66.2585Z" fill="white"/>
</mask>
<g mask="url(#mask2_385_1317)">
<path d="M67.0149 130.64H70.126V145.515H77.6094V148.34H67.0149V130.64Z" fill="#DDB9A2"/>
</g>
<mask id="mask3_385_1317" style="mask-type:luminance" maskUnits="userSpaceOnUse" x="-37" y="-67" width="281" height="306">
<path d="M-37 -66.2585H244V238.966H-37V-66.2585Z" fill="white"/>
</mask>
<g mask="url(#mask3_385_1317)">
<path d="M88.7024 130.64H91.8135V145.515H99.2969V148.34H88.7024V130.64Z" fill="#DDB9A2"/>
</g>
<mask id="mask4_385_1317" style="mask-type:luminance" maskUnits="userSpaceOnUse" x="-37" y="-67" width="281" height="306">
<path d="M-37 -66.2585H244V238.966H-37V-66.2585Z" fill="white"/>
</mask>
<g mask="url(#mask4_385_1317)">
<path d="M113.5 148.34H110.389V130.64H113.5V148.34Z" fill="#DDB9A2"/>
</g>
<mask id="mask5_385_1317" style="mask-type:luminance" maskUnits="userSpaceOnUse" x="-37" y="-67" width="281" height="306">
<path d="M-37 -66.2585H244V238.966H-37V-66.2585Z" fill="white"/>
</mask>
<g mask="url(#mask5_385_1317)">
<path d="M125.79 148.34V130.64H129.53L134.235 138.25C135.472 140.322 136.467 142.296 137.3 144.291L137.362 144.268C137.124 141.891 137.099 139.76 137.099 137.208V130.64H140.007V148.34H136.69L131.938 140.469C130.753 138.421 129.551 136.257 128.639 134.203L128.553 134.226C128.674 136.61 128.698 138.89 128.698 141.546V148.34H125.79Z" fill="#DDB9A2"/>
</g>
<mask id="mask6_385_1317" style="mask-type:luminance" maskUnits="userSpaceOnUse" x="-37" y="-67" width="281" height="306">
<path d="M-37 -66.2585H244V238.966H-37V-66.2585Z" fill="white"/>
</mask>
<g mask="url(#mask6_385_1317)">
<path d="M161.162 140.68L159.677 136.22C159.324 135.143 159.038 134.082 158.769 133.126H158.72C158.465 134.094 158.213 135.165 157.895 136.201L156.454 140.68H161.162ZM155.906 143.207L154.345 148.34H151.076L156.84 130.64H160.89L166.826 148.34H163.405L161.728 143.207H155.906Z" fill="#DDB9A2"/>
</g>
</svg>
