<svg width="137" height="118" viewBox="0 0 137 118" fill="none" xmlns="http://www.w3.org/2000/svg">
<mask id="mask0_1189_8" style="mask-type:luminance" maskUnits="userSpaceOnUse" x="0" y="-15" width="137" height="133">
<path d="M0 -15H136.8V118H0V-15Z" fill="white"/>
</mask>
<g mask="url(#mask0_1189_8)">
<path d="M77.2338 35.7728H75.5347V28.5914H79.3882L77.2338 35.7728ZM76.8443 36.7908C76.7064 36.9452 76.59 37.0997 76.4971 37.2412L76.497 37.2414C76.4169 37.3642 76.3523 37.4777 76.3011 37.5758H73.7213C73.6197 37.381 73.4643 37.1239 73.2412 36.8597L73.241 36.8594C73.2215 36.8366 73.1992 36.8136 73.1787 36.7908H76.8443ZM72.1734 26.5923C72.4706 26.1514 72.7303 25.7283 73.0334 25.3937L73.0336 25.3933C73.5209 24.8504 74.258 24.5376 75.0059 24.5379H75.006H75.0077C75.1335 24.538 75.2595 24.5467 75.3846 24.5644C75.7943 24.6229 76.1487 24.7674 76.4737 24.9841C76.7973 25.2004 77.0886 25.4914 77.345 25.836C77.6069 26.1867 77.8597 26.5984 78.1665 27.0024C78.3152 27.1976 78.4805 27.3909 78.6666 27.5734H71.3762C71.6994 27.2646 71.9494 26.922 72.1732 26.5926L72.1734 26.5923ZM72.7012 35.7728L70.6268 28.5914H74.4877V35.7728H72.7012ZM81.2759 65.1459H75.7237L75.7235 48.2785L81.2759 52.084V65.1459ZM67.4357 49.2406V65.146H62.003L62.003 38.888L67.4356 35.7163L67.4357 41.1865L67.435 41.1858V45.9662V47.3361V49.2406H67.4357ZM75.7235 47.033L75.7234 38.5938H77.0112L77.1359 38.2488C77.1388 38.2413 77.1494 38.2147 77.1666 38.1767C77.2269 38.042 77.3724 37.7566 77.6042 37.4896L77.6045 37.4893C77.7643 37.3039 77.9636 37.1273 78.1987 37.0006C78.4362 36.8735 78.7051 36.7917 79.0464 36.7908L79.2006 36.7906V35.7728H78.3245L80.479 28.5914H80.9113C80.9374 28.5924 80.9706 28.5956 81.0118 28.5957C81.0574 28.5957 81.1019 28.5938 81.1453 28.5914H82.0076V27.5734H80.9221C80.7686 27.5644 80.608 27.5344 80.4481 27.4839C80.2555 27.4233 80.0636 27.3354 79.8899 27.2334C79.5522 27.0358 79.2751 26.7477 79.0082 26.3969C78.7415 26.0477 78.4907 25.6398 78.1933 25.2393C77.8808 24.8196 77.5096 24.4414 77.0671 24.1454C76.6252 23.8492 76.1107 23.6379 75.5351 23.557C75.491 23.5507 75.4471 23.548 75.4031 23.5434V20.9526H74.3559V23.5805C73.5512 23.7197 72.7986 24.1101 72.2459 24.7227C71.8576 25.155 71.5784 25.6213 71.2987 26.0325L71.2985 26.0328C71.0194 26.4462 70.7428 26.8027 70.3937 27.0602C70.1921 27.2098 69.9586 27.3426 69.7204 27.4345C69.5096 27.5161 69.2951 27.5636 69.0915 27.5734H67.7514V28.5914H68.8759C68.9211 28.5939 68.9673 28.5958 69.0149 28.5958C69.0638 28.5958 69.1117 28.594 69.159 28.5914H69.5393L71.6136 35.7728H70.8219V36.7905L70.976 36.7908C71.3227 36.7917 71.5948 36.8761 71.835 37.0068C72.1907 37.2005 72.4653 37.5156 72.6413 37.787L72.6415 37.7873C72.7299 37.9225 72.7943 38.0454 72.8348 38.1312C72.8552 38.1743 72.8697 38.208 72.8784 38.2293L72.878 38.2282L72.8875 38.2517L72.8885 38.2544L72.8892 38.2565L73.0111 38.5938H74.6763L74.6763 46.3154L68.4828 42.0709V33.9174L62.003 37.7006V36.7785V36.2822V30.6246H60.956V36.2822V36.7785V38.3119L54.4775 42.0943V66.1639H55.5245V42.6705L60.956 39.4994V66.1639H67.9592H68.4828V47.1862H68.4821V46.1161H68.4828V45.965V43.3164L74.6764 47.5608L74.6765 66.1639H82.3229V51.5562L75.7235 47.033Z" fill="#06153A"/>
</g>
<mask id="mask1_1189_8" style="mask-type:luminance" maskUnits="userSpaceOnUse" x="0" y="-15" width="137" height="133">
<path d="M0 -15H136.8V118H0V-15Z" fill="white"/>
</mask>
<g mask="url(#mask1_1189_8)">
<path d="M42.4812 75.1727L41.7582 73.2291C41.5865 72.7597 41.4471 72.2976 41.316 71.881H41.2925C41.1681 72.3026 41.0453 72.7696 40.8905 73.2208L40.1892 75.1727H42.4812ZM39.9221 76.2735L39.1624 78.5102H37.5708L40.377 70.7974H42.3487L45.2386 78.5102H43.5733L42.7565 76.2735H39.9221Z" fill="#06153A"/>
</g>
<mask id="mask2_1189_8" style="mask-type:luminance" maskUnits="userSpaceOnUse" x="0" y="-15" width="137" height="133">
<path d="M0 -15H136.8V118H0V-15Z" fill="white"/>
</mask>
<g mask="url(#mask2_1189_8)">
<path d="M50.6377 70.7975H52.1523V77.2792H55.7955V78.5102H50.6377V70.7975Z" fill="#06153A"/>
</g>
<mask id="mask3_1189_8" style="mask-type:luminance" maskUnits="userSpaceOnUse" x="0" y="-15" width="137" height="133">
<path d="M0 -15H136.8V118H0V-15Z" fill="white"/>
</mask>
<g mask="url(#mask3_1189_8)">
<path d="M61.1958 70.7975H62.7104V77.2792H66.3536V78.5102H61.1958V70.7975Z" fill="#06153A"/>
</g>
<mask id="mask4_1189_8" style="mask-type:luminance" maskUnits="userSpaceOnUse" x="0" y="-15" width="137" height="133">
<path d="M0 -15H136.8V118H0V-15Z" fill="white"/>
</mask>
<g mask="url(#mask4_1189_8)">
<path d="M73.268 78.5102H71.7534V70.7975H73.268V78.5102Z" fill="#06153A"/>
</g>
<mask id="mask5_1189_8" style="mask-type:luminance" maskUnits="userSpaceOnUse" x="0" y="-15" width="137" height="133">
<path d="M0 -15H136.8V118H0V-15Z" fill="white"/>
</mask>
<g mask="url(#mask5_1189_8)">
<path d="M79.2515 78.5102V70.7975H81.0723L83.3626 74.1138C83.9652 75.0163 84.4494 75.8768 84.8547 76.7458L84.8849 76.7359C84.769 75.7001 84.7573 74.7716 84.7573 73.6596V70.7975H86.1729V78.5102H84.5581L82.2447 75.0807C81.6676 74.1881 81.0824 73.2454 80.6385 72.3504L80.5966 72.3602C80.6554 73.3992 80.6671 74.3925 80.6671 75.5498V78.5102H79.2515Z" fill="#06153A"/>
</g>
<mask id="mask6_1189_8" style="mask-type:luminance" maskUnits="userSpaceOnUse" x="0" y="-15" width="137" height="133">
<path d="M0 -15H136.8V118H0V-15Z" fill="white"/>
</mask>
<g mask="url(#mask6_1189_8)">
<path d="M96.4719 75.1727L95.7489 73.2291C95.5772 72.7597 95.4378 72.2976 95.3068 71.881H95.2832C95.1588 72.3026 95.036 72.7696 94.8812 73.2208L94.1799 75.1727H96.4719ZM93.9128 76.2735L93.1531 78.5102H91.5615L94.3678 70.7974H96.3394L99.2293 78.5102H97.564L96.7473 76.2735H93.9128Z" fill="#06153A"/>
</g>
</svg>
