<svg width="1221" height="396" viewBox="0 0 1221 396" fill="none" xmlns="http://www.w3.org/2000/svg">
<path d="M800.653 491.593H737.826V478.858H800.653V489.162V489.471V491.593ZM787.285 480.578V488.383H793.812V480.578H787.285ZM772.682 480.578V488.383H779.21V480.578H772.682ZM758.082 480.578V488.383H764.61V480.578H758.082ZM743.481 480.578V488.383H750.007V480.578H743.481ZM800.653 477.871H737.826V465.567H800.653V473.419V475.699V476.774V477.103V477.871ZM787.285 467.817V475.623H793.812V467.817H787.285ZM772.682 467.817V475.623H779.21V467.817H772.682ZM758.082 467.817V475.623H764.61V467.817H758.082ZM743.481 467.817V475.623H750.007V467.817H743.481ZM800.653 464.581H737.826V452.277H800.653V458.795V463.163V464.581ZM787.285 454.525V462.331H793.812V454.525H787.285ZM772.682 454.525V462.331H779.21V454.525H772.682ZM758.082 454.525V462.331H764.61V454.525H758.082ZM743.481 454.525V462.331H750.007V454.525H743.481ZM800.653 451.29H737.826V438.985H800.653V451.29ZM787.285 441.235V449.039H793.812V441.235H787.285ZM772.682 441.235V449.039H779.21V441.235H772.682ZM758.082 441.235V449.039H764.61V441.235H758.082ZM743.481 441.235V449.039H750.007V441.235H743.481ZM800.653 437.998H737.826V434.133V425.693H800.653V427.647V431.774V433.071V434.133V437.998ZM787.285 427.943V435.749H793.812V427.943H787.285ZM772.682 427.943V435.749H779.21V427.943H772.682ZM758.082 427.943V435.749H764.61V427.943H758.082ZM743.481 427.943V435.749H750.007V427.943H743.481ZM800.653 424.706H737.826V414.026V412.402H800.653V414.026V424.706ZM787.285 414.651V422.458H793.812V414.651H787.285ZM772.682 414.651V422.458H779.21V414.651H772.682ZM758.082 414.651V422.458H764.61V414.651H758.082ZM743.481 414.651V422.458H750.007V414.651H743.481ZM789.127 411.415H737.826V401.359H743.481V409.166H750.007V401.359H758.082V409.166H764.61V401.359V395.458H737.826H800.653H789.127V401.359H787.285V409.166H789.127V411.415ZM772.682 401.359V409.166H779.21V401.359H772.682Z" fill="white"/>
<path d="M644.104 497.731L630.534 496.13V395.457H623.181V495.263L622.057 495.13L609.613 493.662V395.457H602.26H588.69H581.337H567.768H564.092H647.781H644.104H642.2V411.949H644.104V497.731ZM632.44 474.821V481.995H642.2V474.821H632.44ZM611.517 474.821V481.995H621.278V474.821H611.517ZM632.44 462.33V469.503H642.2V462.33H632.44ZM611.517 462.33V469.503H621.278V462.33H611.517ZM632.44 449.837V457.011H642.2V449.837H632.44ZM611.517 449.837V457.011H621.278V449.837H611.517ZM632.44 437.346V444.518H642.2V437.346H632.44ZM611.517 437.346V444.518H621.278V437.346H611.517ZM632.44 424.853V432.027H642.2V424.853H632.44ZM611.517 424.853V432.027H621.278V424.853H611.517ZM632.44 412.361V419.534H642.2V412.361H632.44ZM611.517 412.361V419.534H621.278V412.361H611.517ZM632.44 399.869V407.042H642.2V399.869H632.44ZM611.517 399.869V407.042H621.278V399.869H611.517ZM602.26 492.794L588.69 491.193V403.455H590.594V407.042H600.354V403.455H602.26V492.794ZM590.594 474.821V481.995H600.354V474.821H590.594ZM590.594 462.33V469.503H600.354V462.33H590.594ZM590.594 449.837V457.011H600.354V449.837H590.594ZM590.594 437.346V444.518H600.354V437.346H590.594ZM590.594 424.853V432.027H600.354V424.853H590.594ZM590.594 412.361V419.534H600.354V412.361H590.594ZM581.337 490.325L572.88 489.327L567.768 488.723V403.455H569.672V407.042H579.433V403.455H581.337V490.325ZM569.672 474.821V481.995H579.433V474.821H569.672ZM569.672 462.33V469.503H579.433V462.33H569.672ZM569.672 449.837V457.011H579.433V449.837H569.672ZM569.672 437.346V444.518H579.433V437.346H569.672ZM569.672 424.853V432.027H579.433V424.853H569.672ZM569.672 412.361V419.534H579.433V412.361H569.672Z" fill="white"/>
<path d="M609.613 495.351H602.26V403.456H608.405V395.457H602.26H609.613V493.663V495.351Z" fill="white"/>
<path d="M630.535 497.604H623.182V395.458H630.535V496.131V497.604Z" fill="white"/>
<path d="M325.355 483.843H298.834V482.879H300.919V480.132V475.715V434.132V423.201H328.609V395.457H300.919H358.383H342.249V403.456H358.383V414.025V457.511V466.992V480.132H333.447H323.366V482.879H325.355V483.843Z" fill="white"/>
<path d="M472.472 445.382H467.633V444.519H457.793V438.623H456.439V444.519H452.372V436.442H451.356V444.519H449.176V445.382H423.252V426.94H434.495V403.457H438.231V395.458H423.252H472.472H463.52V421.207H472.472V445.382Z" fill="white"/>
<path d="M248.731 456.825H240.806V451.944H223.115V456.825H208.721V414.025H223.115V395.457H208.721H248.731H240.806V444.039H243.798V444.839H248.731V456.825Z" fill="white"/>
<path d="M243.799 444.038H240.807V395.457H284.408H279.725V423.201H284.408V434.131V443.042H243.799V444.038Z" fill="white"/>
<path d="M328.609 423.202H279.725V395.458H328.609V423.202Z" fill="white"/>
<path d="M161.497 445.769H121.734V420.697H139.538V395.458H121.734H161.497V414.026V445.769Z" fill="white"/>
<path d="M139.539 420.696H87.2266V404.655H133.331V395.458H87.2266H121.735H139.539V420.696Z" fill="white"/>
<path d="M62.3459 424.821H29.625V407.628H39.6381V395.457H29.625H62.3459H55.9938V404.655H62.3459V414.025V423.099V424.821Z" fill="white"/>
<path d="M133.33 404.655H55.9922V395.458H133.33V404.655Z" fill="white"/>
<path d="M39.6375 407.628H0V395.457H39.6375V407.628Z" fill="white"/>
<path d="M223.117 414.024H161.498V395.456H223.117V414.024Z" fill="white"/>
<path d="M438.231 403.456H434.495V399.457H382.586L384.831 403.456H358.385H342.25V395.457H358.385H423.253H438.231V403.456Z" fill="white"/>
<path d="M608.405 403.456H550.071V399.869H523.159V395.457H512.424H567.768H581.337H588.69H602.26H608.405V403.456Z" fill="white"/>
<path d="M511.754 421.206H463.52V395.457H523.158V399.869H511.754V421.206Z" fill="white"/>
<path d="M722.614 440.214H661.396V411.95H711.996V395.458H661.396H722.614H719.224V401.359H722.614V414.026V434.133V440.214Z" fill="white"/>
<path d="M711.995 411.95H642.199V395.458H711.995V411.95Z" fill="white"/>
<path d="M764.611 401.358H719.225V395.457H722.614H737.827H764.611V401.358Z" fill="white"/>
<path d="M818.527 411.95H789.127V395.458H862.919H818.527V411.95Z" fill="white"/>
<path d="M910.35 455.126H906.285V451.529H865.931V455.126H825.453H818.527V448.966V447.669V434.131V427.646V425.007V414.025V411.949V395.457H862.919H910.35H909.861V424.078L910.35 423.974V425.007V427.646V434.131V448.105V449.402V455.126Z" fill="white"/>
<path d="M1046.16 481.636H1043.71V475.545H975.915V481.636H973.473V466.402V448.973H980.647V395.457H973.473H1046.16H1036.21V431.432H1046.16V481.636Z" fill="white"/>
<path d="M1068.73 431.433H1036.21V395.458H1046.16H1068.73H1058.05V411.003H1068.73V414.026V431.433Z" fill="white"/>
<path d="M980.649 448.974H943.553V416.878L953.966 414.651L962.117 395.458H943.553H973.474H980.649V448.974Z" fill="white"/>
<path d="M909.861 424.079V395.458H962.116L953.965 414.651L943.552 416.878L910.351 423.975L909.861 424.079Z" fill="white"/>
<path d="M1108.38 411.003H1058.05V395.458H1137.85H1108.38V411.003Z" fill="white"/>
<path d="M1154.73 456.612H1148.52V454.896H1147.5V456.612H1141.74V455.787H1140.73V456.612H1108.38V427.646V414.024V411.002V395.456H1137.85H1154.73H1143.89V407.042H1151.23V434.131H1154.73V456.612Z" fill="white"/>
<path d="M1220.69 407.042H1180.29L1180.71 405.702H1151.23V407.042H1143.89V395.457H1154.73H1204.43H1220.69V407.042Z" fill="white"/>
<path d="M333.447 343.073H387.312V128.667H333.447V343.073Z" fill="white"/>
<path d="M342.25 203.396H378.513V113.295H342.25V203.396Z" fill="white"/>
<path d="M350.322 153.521H370.437V103.545H350.322V153.521Z" fill="white"/>
<path d="M367.235 129.228H353.527V95.1676H367.235V129.228Z" fill="white"/>
<path d="M359.478 114.396H357.99V80.3368H359.478V114.396Z" fill="white"/>
<path d="M362.77 102.622H361.283V68.5634H362.77V102.622Z" fill="white"/>
<path d="M388.75 130.401H332.01V128.117H388.75V130.401Z" fill="white"/>
<path d="M379.834 114.396H340.926V112.197H379.834V114.396Z" fill="white"/>
<path d="M371.281 104.306H348.857V102.62H371.281V104.306Z" fill="white"/>
<path d="M345.584 126.394H347.269V116.952H345.584V126.394Z" fill="white"/>
<path d="M350.248 126.394H350.323V116.952H350.248V126.394Z" fill="white"/>
<path d="M350.322 126.394H351.934V116.952H350.322V126.394Z" fill="white"/>
<path d="M354.912 126.394H356.598V116.952H354.912V126.394Z" fill="white"/>
<path d="M359.576 126.394H361.262V116.952H359.576V126.394Z" fill="white"/>
<path d="M364.24 126.394H365.927V116.952H364.24V126.394Z" fill="white"/>
<path d="M370.438 126.394H370.592V116.952H370.438V126.394Z" fill="white"/>
<path d="M368.906 126.394H370.437V116.952H368.906V126.394Z" fill="white"/>
<path d="M373.57 126.394H375.255V116.952H373.57V126.394Z" fill="white"/>
<path d="M342.249 148.415H338.176V137.215H342.249V148.415Z" fill="white"/>
<path d="M346.242 148.417H350.317V137.216H346.242V148.417Z" fill="white"/>
<path d="M358.384 148.415H354.311V137.215H358.384V148.415Z" fill="white"/>
<path d="M366.45 148.415H362.377V137.215H366.45V148.415Z" fill="white"/>
<path d="M374.517 148.415H370.445V137.215H374.517V148.415Z" fill="white"/>
<path d="M382.585 148.415H378.512V137.215H382.585V148.415Z" fill="white"/>
<path d="M342.249 165.876H338.176V154.675H342.249V165.876Z" fill="white"/>
<path d="M350.315 165.876H346.242V154.675H350.315V165.876Z" fill="white"/>
<path d="M358.384 165.876H354.311V154.675H358.384V165.876Z" fill="white"/>
<path d="M362.377 165.876H366.45V154.674H362.377V165.876Z" fill="white"/>
<path d="M374.517 165.876H370.445V154.675H374.517V165.876Z" fill="white"/>
<path d="M382.585 165.876H378.512V154.675H382.585V165.876Z" fill="white"/>
<path d="M342.249 183.335H338.176V172.135H342.249V183.335Z" fill="white"/>
<path d="M350.315 183.335H346.242V172.135H350.315V183.335Z" fill="white"/>
<path d="M358.384 183.335H354.311V172.135H358.384V183.335Z" fill="white"/>
<path d="M366.45 183.335H362.377V172.135H366.45V183.335Z" fill="white"/>
<path d="M370.445 183.335H374.517V172.135H370.445V183.335Z" fill="white"/>
<path d="M378.512 183.335H382.585V172.135H378.512V183.335Z" fill="white"/>
<path d="M338.176 200.794H342.249V189.592H338.176V200.794Z" fill="white"/>
<path d="M350.315 200.794H346.242V189.593H350.315V200.794Z" fill="white"/>
<path d="M358.384 200.794H354.311V189.593H358.384V200.794Z" fill="white"/>
<path d="M366.45 200.794H362.377V189.593H366.45V200.794Z" fill="white"/>
<path d="M374.517 200.794H370.445V189.593H374.517V200.794Z" fill="white"/>
<path d="M382.585 200.794H378.512V189.593H382.585V200.794Z" fill="white"/>
<path d="M342.249 218.255H338.176V207.054H342.249V218.255Z" fill="white"/>
<path d="M346.242 218.255H350.317V207.054H346.242V218.255Z" fill="white"/>
<path d="M358.384 218.255H354.311V207.054H358.384V218.255Z" fill="white"/>
<path d="M362.377 218.255H366.45V207.054H362.377V218.255Z" fill="white"/>
<path d="M374.517 218.255H370.445V207.054H374.517V218.255Z" fill="white"/>
<path d="M382.585 218.255H378.512V207.054H382.585V218.255Z" fill="white"/>
<path d="M342.249 235.714H338.176V224.514H342.249V235.714Z" fill="white"/>
<path d="M350.315 235.714H346.242V224.514H350.315V235.714Z" fill="white"/>
<path d="M358.384 235.714H354.311V224.514H358.384V235.714Z" fill="white"/>
<path d="M366.45 235.714H362.377V224.514H366.45V235.714Z" fill="white"/>
<path d="M374.517 235.714H370.445V224.514H374.517V235.714Z" fill="white"/>
<path d="M378.512 235.714H382.585V224.514H378.512V235.714Z" fill="white"/>
<path d="M342.249 253.173H338.176V241.972H342.249V253.173Z" fill="white"/>
<path d="M346.242 253.173H350.317V241.971H346.242V253.173Z" fill="white"/>
<path d="M354.311 253.173H358.384V241.971H354.311V253.173Z" fill="white"/>
<path d="M366.45 253.173H362.377V241.972H366.45V253.173Z" fill="white"/>
<path d="M374.517 253.173H370.445V241.972H374.517V253.173Z" fill="white"/>
<path d="M382.585 253.173H378.512V241.972H382.585V253.173Z" fill="white"/>
<path d="M342.249 270.634H338.176V259.432H342.249V270.634Z" fill="white"/>
<path d="M350.315 270.634H346.242V259.432H350.315V270.634Z" fill="white"/>
<path d="M358.384 270.634H354.311V259.432H358.384V270.634Z" fill="white"/>
<path d="M366.45 270.634H362.377V259.432H366.45V270.634Z" fill="white"/>
<path d="M370.445 270.634H374.517V259.433H370.445V270.634Z" fill="white"/>
<path d="M382.585 270.634H378.512V259.432H382.585V270.634Z" fill="white"/>
<path d="M342.249 288.093H338.176V276.891H342.249V288.093Z" fill="white"/>
<path d="M346.242 288.093H350.317V276.891H346.242V288.093Z" fill="white"/>
<path d="M358.384 288.093H354.311V276.891H358.384V288.093Z" fill="white"/>
<path d="M366.45 288.093H362.377V276.891H366.45V288.093Z" fill="white"/>
<path d="M374.517 288.093H370.445V276.891H374.517V288.093Z" fill="white"/>
<path d="M382.585 288.093H378.512V276.891H382.585V288.093Z" fill="white"/>
<path d="M342.249 305.552H338.176V294.35H342.249V305.552Z" fill="white"/>
<path d="M350.315 305.552H346.242V294.35H350.315V305.552Z" fill="white"/>
<path d="M358.384 305.552H354.311V294.35H358.384V305.552Z" fill="white"/>
<path d="M362.377 305.552H366.45V294.35H362.377V305.552Z" fill="white"/>
<path d="M374.517 305.552H370.445V294.35H374.517V305.552Z" fill="white"/>
<path d="M378.512 305.552H382.585V294.35H378.512V305.552Z" fill="white"/>
<path d="M338.176 323.011H342.249V311.809H338.176V323.011Z" fill="white"/>
<path d="M350.315 323.011H346.242V311.809H350.315V323.011Z" fill="white"/>
<path d="M354.311 323.011H358.384V311.809H354.311V323.011Z" fill="white"/>
<path d="M366.45 323.011H362.377V311.809H366.45V323.011Z" fill="white"/>
<path d="M374.517 323.011H370.445V311.809H374.517V323.011Z" fill="white"/>
<path d="M382.585 323.011H378.512V311.809H382.585V323.011Z" fill="white"/>
<path d="M177.01 317.44H263.599V136.822H177.01V317.44Z" fill="white"/>
<path d="M266.059 138.823H174.549V133.718H266.059V138.823Z" fill="white"/>
<path d="M179.92 151.446H260.688V127.182H179.92V151.446Z" fill="white"/>
<path d="M218.084 143.767H186.102V117.253H218.084V143.767Z" fill="white"/>
<path d="M204.611 124.726H186.102V110.77H199.376L204.611 124.726Z" fill="white"/>
<path d="M193.562 130.272H195.357V99.1857H193.562V130.272Z" fill="white"/>
<path d="M196.07 97.5739C196.07 98.4632 195.349 99.1846 194.46 99.1846C193.569 99.1846 192.848 98.4632 192.848 97.5739C192.848 96.6832 193.569 95.9619 194.46 95.9619C195.349 95.9619 196.07 96.6832 196.07 97.5739Z" fill="white"/>
<path d="M980.647 331.19H885.863L874.035 65.6331L980.647 87.7625V331.19Z" fill="white"/>
<path d="M567.122 179.532V90.7485H552.257V66.9671H546.946V32.0885H517.687V6.45517H515.083V32.0885H509.351V0.000457764H506.749V32.0885H488.251V90.7485H478.697V179.532H470.506V341.243H572.88V179.532H567.122Z" fill="white"/>
<path d="M55.9922 354.833H1188.49V327.899H55.9922V354.833Z" fill="white"/>
<path d="M722.612 348.235H672.463L692.004 247.814H722.612V348.235Z" fill="#E7DED7"/>
<path d="M15.3613 394.616H1204.43V352.144H15.3613V394.616Z" fill="#E7DED7"/>
<path d="M681.517 162.407V117.907H665.415V100.967H656.801V86.7361H653.778V62.34H652.997V86.7361H649.973V100.967H641.358V117.907H625.379V162.407H622.058V243.196H597.283V335.292H622.058H646.834H684.715V162.407H681.517Z" fill="#E7DED7"/>
<path d="M774.058 213.524H696.119V214.94H699.644V346.728H770.53V214.94H774.058V213.524Z" fill="#E7DED7"/>
<path d="M418.658 356.13H349.557V246.349H418.658V356.13Z" fill="#E7DED7"/>
<path d="M339.147 356.13H220.305V302.594H339.147V356.13Z" fill="#E7DED7"/>
<path d="M310.093 182.987H284.004V314.454H310.093V182.987Z" fill="#E7DED7"/>
<path d="M291.12 219.411H289.764V147.918H291.12V219.411Z" fill="#E7DED7"/>
<path d="M295.525 224.833H294.17V153.34H295.525V224.833Z" fill="#E7DED7"/>
<path d="M301.961 192.474H286.016V174.855H301.961V192.474Z" fill="#E7DED7"/>
<path d="M379.892 356.13H334.488V266.001H379.892V356.13Z" fill="#E7DED7"/>
<path d="M429.859 356.13H515.088V170.622H429.859V356.13Z" fill="#E7DED7"/>
<path d="M438.23 195.144H506.713V164.246H438.23V195.144Z" fill="#E7DED7"/>
<path d="M521.693 176.673H423.252V174.504H521.693V176.673Z" fill="#E7DED7"/>
<path d="M454.575 356.13H414.416V262.443H454.575V356.13Z" fill="#E7DED7"/>
<path d="M172.868 356.13H126.787V258.885H172.868V356.13Z" fill="#E7DED7"/>
<path d="M141.695 356.13H233.518V232.456H141.695V356.13Z" fill="#E7DED7"/>
<path d="M235.89 232.458H136.338V227.714H235.89V232.458Z" fill="#E7DED7"/>
<path d="M186.115 239.911H145.762V214.836H186.115V239.911Z" fill="#E7DED7"/>
<path d="M206.072 230.085H199.295V214.837H206.072V230.085Z" fill="#E7DED7"/>
<path d="M220.304 230.085H212.85V214.837H220.304V230.085Z" fill="#E7DED7"/>
<path d="M149.828 356.13H101.713V318.519H149.828V356.13Z" fill="#E7DED7"/>
<path d="M106.322 356.13H83.5391V302.594H106.322V356.13Z" fill="#E7DED7"/>
<path d="M94.9314 356.13H55.9922V337.325H94.9314V356.13Z" fill="#E7DED7"/>
<path d="M506.713 356.13H986.51V314.454H506.713V356.13Z" fill="#E7DED7"/>
<path d="M927.611 230.859L909.504 222.5C912.079 216.848 913.613 210.627 913.865 204.082L933.762 204.728C933.43 213.883 931.325 222.725 927.611 230.859ZM913.562 251.042C913.107 251.496 912.646 251.943 912.181 252.384L898.557 237.843C902.97 233.651 906.608 228.65 909.232 223.08L927.342 231.44C923.975 238.632 919.343 245.259 913.562 251.042ZM899.129 262.127L889.614 244.588C892.665 242.79 895.505 240.671 898.087 238.28L911.715 252.823C907.838 256.427 903.618 259.539 899.129 262.127ZM933.355 327.899H796.011L830.437 264.448C832.691 265.692 835.01 266.808 837.383 267.796L834.957 273.708C834.405 273.534 833.818 273.439 833.21 273.439C830.024 273.439 827.445 276.022 827.445 279.204C827.445 282.39 830.024 284.971 833.21 284.971C836.394 284.971 838.975 282.39 838.975 279.204C838.975 276.855 837.569 274.836 835.554 273.938L837.976 268.039C845.558 271.111 853.678 272.859 862.055 273.161L861.858 279.208C858.735 279.28 856.226 281.831 856.226 284.971C856.226 288.155 858.807 290.738 861.991 290.738C865.177 290.738 867.758 288.155 867.758 284.971C867.758 281.958 865.446 279.485 862.499 279.228L862.695 273.182C863.357 273.199 864.019 273.21 864.683 273.21C872.749 273.21 880.607 271.874 888.01 269.308L890.082 275.187C888.119 276.108 886.76 278.099 886.76 280.411C886.76 283.594 889.342 286.176 892.526 286.176C895.711 286.176 898.291 283.594 898.291 280.411C898.291 277.226 895.711 274.643 892.526 274.643C891.879 274.643 891.258 274.751 890.676 274.95L888.615 269.097C892.17 267.828 895.618 266.275 898.931 264.448L933.355 327.899ZM815.804 251.042C815.348 250.587 814.902 250.125 814.462 249.66L829.002 236.036C832.16 239.362 835.779 242.244 839.753 244.588L830.237 262.127C825.025 259.121 820.172 255.411 815.804 251.042ZM799.893 226.359L818.604 219.47C820.87 225.48 824.279 230.935 828.567 235.567L814.023 249.195C807.783 242.484 803.017 234.74 799.893 226.359ZM795.558 202.163C795.558 201.52 795.567 200.878 795.585 200.238L815.476 200.883C815.466 201.308 815.46 201.735 815.46 202.163C815.46 208.024 816.493 213.651 818.382 218.868L799.673 225.757C796.969 218.293 795.558 210.336 795.558 202.163ZM801.757 173.467L819.862 181.824C817.289 187.476 815.754 193.699 815.502 200.243L795.604 199.596C795.936 190.443 798.042 181.6 801.757 173.467ZM815.804 153.284C816.259 152.83 816.721 152.383 817.185 151.941L830.81 166.482C826.396 170.674 822.759 175.675 820.132 181.244L802.025 172.884C805.391 165.692 810.022 159.066 815.804 153.284ZM841.391 137.041L848.018 155.846C841.753 158.107 836.075 161.606 831.279 166.046L817.651 151.503C824.602 145.038 832.663 140.157 841.391 137.041ZM864.683 133.038C865.327 133.038 865.969 133.047 866.609 133.064L865.962 152.956C865.538 152.946 865.111 152.94 864.683 152.94C859.063 152.94 853.659 153.89 848.623 155.634L841.996 136.829C849.195 134.336 856.841 133.038 864.683 133.038ZM890.66 138.064L883.084 156.511C877.958 154.439 872.407 153.204 866.603 152.98L867.248 133.084C875.394 133.379 883.288 135.079 890.66 138.064ZM913.562 153.284C914.017 153.739 914.463 154.199 914.904 154.664L900.363 168.29C895.694 163.372 890.02 159.418 883.676 156.754L891.253 138.307C899.493 141.736 907.062 146.783 913.562 153.284ZM929.474 177.967L910.762 184.856C908.497 178.844 905.087 173.389 900.801 168.757L915.345 155.131C921.583 161.842 926.348 169.586 929.474 177.967ZM881.347 248.479C883.831 247.583 886.222 246.492 888.502 245.225L898.012 262.757C894.79 264.536 891.435 266.048 887.975 267.284L881.347 248.479ZM863.403 251.368C863.83 251.379 864.255 251.386 864.683 251.386C870.305 251.386 875.707 250.436 880.743 248.692L887.371 267.496C880.171 269.989 872.527 271.288 864.683 271.288C864.041 271.288 863.398 271.277 862.758 271.26L863.403 251.368ZM846.283 247.814C851.407 249.887 856.958 251.12 862.765 251.344L862.117 271.24C853.974 270.946 846.076 269.245 838.707 266.26L846.283 247.814ZM845.689 247.571L838.114 266.018C835.805 265.056 833.549 263.969 831.353 262.757L840.865 245.225C842.423 246.091 844.033 246.876 845.689 247.571ZM868.326 203.492C868.429 203.211 868.499 202.915 868.534 202.608L912.904 204.051C912.656 210.463 911.154 216.559 908.631 222.098L868.326 203.492ZM868.625 205.9L867.827 204.43C867.908 204.315 867.986 204.196 868.057 204.072L908.36 222.679C905.787 228.135 902.225 233.035 897.901 237.143L868.625 205.9ZM869.831 208.125L897.431 237.579C894.906 239.915 892.132 241.984 889.157 243.743L869.831 208.125ZM866.27 205.699C866.482 205.604 866.683 205.491 866.874 205.36L888.045 244.382C885.807 245.623 883.463 246.694 881.027 247.574L866.27 205.699ZM864.683 250.424C864.266 250.424 863.85 250.419 863.435 250.408L864.878 206.034C865.149 206.022 865.411 205.979 865.666 205.914L880.423 247.786C875.489 249.495 870.193 250.424 864.683 250.424ZM863.511 205.859C863.745 205.932 863.987 205.984 864.237 206.014L862.795 250.384C857.107 250.164 851.67 248.956 846.647 246.925L863.511 205.859ZM862.493 205.36C862.629 205.453 862.771 205.539 862.919 205.614L846.055 246.683C844.43 246 842.851 245.23 841.323 244.382L862.493 205.36ZM860.307 206.702L840.211 243.743C836.329 241.45 832.791 238.63 829.703 235.379L860.307 206.702ZM861.168 203.799C861.272 204.021 861.396 204.232 861.54 204.43L861.276 204.916L829.267 234.911C825.066 230.371 821.727 225.027 819.507 219.138L861.168 203.799ZM861.04 200.834C860.938 201.114 860.869 201.41 860.834 201.716L816.462 200.275C816.71 193.862 818.213 187.766 820.734 182.227L861.04 200.834ZM861.807 199.563C861.616 199.773 861.45 200.004 861.31 200.252L821.006 181.647C823.578 176.191 827.142 171.291 831.466 167.183L861.807 199.563ZM863.096 198.626C862.802 198.759 862.526 198.927 862.276 199.126L831.935 166.746C836.635 162.396 842.199 158.969 848.339 156.752L863.096 198.626ZM864.489 198.291C864.218 198.305 863.955 198.346 863.701 198.412L848.943 156.539C853.879 154.832 859.174 153.902 864.683 153.902C865.101 153.902 865.515 153.907 865.931 153.916L864.489 198.291ZM865.854 198.467C865.62 198.392 865.379 198.342 865.129 198.312L866.571 153.941C872.259 154.161 877.698 155.37 882.719 157.4L865.854 198.467ZM867.283 199.288C867.033 199.06 866.751 198.867 866.447 198.711L883.312 157.643C889.528 160.254 895.086 164.13 899.663 168.946L867.283 199.288ZM867.721 199.755L900.101 169.415C904.299 173.954 907.639 179.298 909.86 185.188L868.198 200.528C868.069 200.251 867.907 199.991 867.721 199.755ZM816.438 200.915L860.811 202.357C860.826 202.647 860.872 202.927 860.946 203.196L819.283 218.536C817.433 213.422 816.422 207.908 816.422 202.163C816.422 201.745 816.427 201.33 816.438 200.915ZM912.929 203.41L868.555 201.968C868.541 201.679 868.494 201.397 868.419 201.128L910.083 185.788C911.934 190.904 912.946 196.416 912.946 202.163C912.946 202.579 912.941 202.996 912.929 203.41ZM933.809 202.163C933.809 202.805 933.798 203.447 933.782 204.088L913.89 203.442C913.899 203.016 913.906 202.589 913.906 202.163C913.906 196.3 912.874 190.675 910.984 185.456L929.694 178.568C932.396 186.031 933.809 193.988 933.809 202.163ZM948.199 199.088C945.176 199.088 942.701 201.412 942.454 204.37L935.702 204.151C935.72 203.49 935.731 202.827 935.731 202.163C935.731 193.758 934.28 185.578 931.499 177.904L937.14 175.827C938.026 177.871 940.062 179.302 942.432 179.302C945.618 179.302 948.199 176.72 948.199 173.536C948.199 170.352 945.618 167.77 942.432 167.77C939.248 167.77 936.667 170.352 936.667 173.536C936.667 174.124 936.755 174.691 936.919 175.226L931.279 177.302C928.064 168.682 923.166 160.718 916.746 153.818L921.16 149.68C922.195 150.669 923.596 151.277 925.14 151.277C928.326 151.277 930.906 148.696 930.906 145.512C930.906 142.328 928.326 139.746 925.14 139.746C921.956 139.746 919.375 142.328 919.375 145.512C919.375 146.922 919.882 148.212 920.721 149.213L916.307 153.351C915.851 152.87 915.391 152.395 914.921 151.924C908.236 145.242 900.455 140.054 891.983 136.528L894.411 130.616C894.962 130.791 895.549 130.885 896.158 130.885C899.342 130.885 901.923 128.304 901.923 125.12C901.923 121.936 899.342 119.354 896.158 119.354C892.973 119.354 890.391 121.936 890.391 125.12C890.391 127.47 891.796 129.49 893.812 130.387L891.391 136.285C883.81 133.214 875.687 131.465 867.311 131.163L867.574 123.083L867.758 123.087C870.942 123.087 873.523 120.505 873.523 117.322C873.523 114.136 870.942 111.555 867.758 111.555C864.573 111.555 861.991 114.136 861.991 117.322C861.991 120.225 864.14 122.628 866.935 123.027L866.671 131.144C866.01 131.125 865.347 131.115 864.683 131.115C856.619 131.115 848.759 132.451 841.357 135.016L839.032 128.42C841.128 127.558 842.606 125.495 842.606 123.087C842.606 119.903 840.025 117.322 836.839 117.322C833.655 117.322 831.074 119.903 831.074 123.087C831.074 126.272 833.655 128.854 836.839 128.854C837.391 128.854 837.922 128.775 838.427 128.63L840.751 135.228C831.775 138.431 823.484 143.451 816.338 150.1L812.123 145.604C813.067 144.578 813.643 143.208 813.643 141.706C813.643 138.52 811.062 135.939 807.876 135.939C804.692 135.939 802.111 138.52 802.111 141.706C802.111 144.89 804.692 147.471 807.876 147.471C809.327 147.471 810.651 146.935 811.666 146.051L815.871 150.539C815.391 150.994 814.915 151.455 814.446 151.924C808.5 157.869 803.739 164.684 800.281 172.08L794.925 169.608C795.119 169.029 795.226 168.412 795.226 167.77C795.226 164.586 792.645 162.004 789.459 162.004C786.275 162.004 783.694 164.586 783.694 167.77C783.694 170.955 786.275 173.536 789.459 173.536C791.775 173.536 793.77 172.171 794.687 170.203L800.01 172.66C796.188 181.024 794.023 190.119 793.683 199.535L786.811 199.311C786.725 196.2 784.179 193.706 781.05 193.706C777.865 193.706 775.283 196.287 775.283 199.471C775.283 202.656 777.865 205.238 781.05 205.238C784.071 205.238 786.55 202.911 786.793 199.951L793.665 200.175C793.646 200.836 793.637 201.499 793.637 202.163C793.637 210.567 795.087 218.748 797.867 226.422L792.226 228.499C791.339 226.453 789.305 225.023 786.934 225.023C783.749 225.023 781.168 227.604 781.168 230.788C781.168 233.974 783.749 236.555 786.934 236.555C790.118 236.555 792.699 233.974 792.699 230.788C792.699 230.202 792.611 229.633 792.449 229.1L798.087 227.023C801.301 235.643 806.202 243.608 812.622 250.508L808.206 254.644C807.173 253.656 805.77 253.047 804.226 253.047C801.042 253.047 798.459 255.63 798.459 258.814C798.459 261.998 801.042 264.579 804.226 264.579C807.41 264.579 809.991 261.998 809.991 258.814C809.991 257.404 809.485 256.114 808.645 255.111L813.06 250.975C813.514 251.455 813.975 251.931 814.446 252.4C818.947 256.901 823.947 260.724 829.321 263.818L794.554 327.899H788.314V329.731H785.258V333.368H944.109V329.731H941.053V327.899H934.812L900.047 263.818C904.678 261.151 909.033 257.943 913.029 254.225L918.663 260.238C917.452 261.295 916.687 262.847 916.687 264.579C916.687 267.764 919.27 270.346 922.454 270.346C925.638 270.346 928.221 267.764 928.221 264.579C928.221 261.395 925.638 258.814 922.454 258.814C921.234 258.814 920.102 259.194 919.17 259.842L913.495 253.786C913.975 253.331 914.451 252.869 914.921 252.4C920.866 246.455 925.626 239.642 929.087 232.247L935.36 235.143C935.247 235.595 935.186 236.067 935.186 236.555C935.186 239.739 937.769 242.32 940.953 242.32C944.137 242.32 946.718 239.739 946.718 236.555C946.718 233.37 944.137 230.788 940.953 230.788C938.482 230.788 936.375 232.343 935.555 234.525L929.357 231.664C933.176 223.3 935.342 214.205 935.682 204.791L942.437 205.011C942.519 208.123 945.067 210.62 948.199 210.62C951.383 210.62 953.965 208.039 953.965 204.854C953.965 201.67 951.383 199.088 948.199 199.088Z" fill="#E7DED7"/>
<path d="M962.115 356.13H1036.21V247.573H962.115V356.13Z" fill="#E7DED7"/>
<path d="M1099.45 355.519H1025.36V289.78H1099.45V355.519Z" fill="#E7DED7"/>
<path d="M738.035 335.292H779.599V280.125H738.035V335.292Z" fill="#E7DED7"/>
<path d="M999.16 356.13H1051.57V144.334H999.16V356.13Z" fill="#E7DED7"/>
<path d="M1137.85 356.13H1068.73V232.457H1121.14L1137.85 356.13Z" fill="#E7DED7"/>
<path d="M1168.12 356.13H1107.59V327.898H1168.12V356.13Z" fill="#E7DED7"/>
<path d="M1039.82 157.644H1038.01V100.089H1039.82V157.644Z" fill="#E7DED7"/>
<path d="M1045.92 169.993H1044.11V112.439H1045.92V169.993Z" fill="#E7DED7"/>
<path d="M1034.29 177.938H1032.48V120.384H1034.29V177.938Z" fill="#E7DED7"/>
<path d="M1096.18 241.944H1071.45V222.462H1096.18V241.944Z" fill="#E7DED7"/>
<path d="M1093.47 226.466H1074.16V215.515H1093.47V226.466Z" fill="#E7DED7"/>
<path d="M1110.75 236.036H1106.01V228.168H1110.75V236.036Z" fill="#E7DED7"/>
<path d="M1119.2 236.036H1112.43V220.991H1119.2V236.036Z" fill="#E7DED7"/>
<path d="M737.826 394.616H800.653V192.111H737.826V394.616Z" fill="white"/>
<path d="M805.345 195.362H733.133V193.31H805.345V195.362Z" fill="white"/>
<path d="M803.393 223.802H735.086V221.756H803.393V223.802Z" fill="white"/>
<path d="M803.393 251.349H735.086V249.303H803.393V251.349Z" fill="white"/>
<path d="M803.393 278.897H735.086V276.852H803.393V278.897Z" fill="white"/>
<path d="M803.393 306.444H735.086V304.399H803.393V306.444Z" fill="white"/>
<path d="M803.393 333.993H735.086V331.948H803.393V333.993Z" fill="white"/>
<path d="M803.393 361.542H735.086V359.497H803.393V361.542Z" fill="white"/>
<path d="M807.732 193.312H730.744V187.717H807.732V193.312Z" fill="white"/>
<mask id="mask0_1264_19951" style="mask-type:luminance" maskUnits="userSpaceOnUse" x="743" y="202" width="8" height="17">
<path d="M750.007 218.192H743.48V202.015H750.007V218.192ZM743.48 202.015V215.516H746.744V202.015H743.48Z" fill="white"/>
</mask>
<g mask="url(#mask0_1264_19951)">
<path d="M743.48 218.192H750.007V202.015H743.48V218.192Z" fill="white"/>
</g>
<path d="M758.082 218.192H764.61V202.015H758.082V218.192Z" fill="white"/>
<path d="M772.682 218.192H779.209V202.015H772.682V218.192Z" fill="white"/>
<path d="M787.285 218.192H793.812V202.015H787.285V218.192Z" fill="white"/>
<path d="M743.48 244.642H750.007V228.464H743.48V244.642Z" fill="white"/>
<path d="M764.61 244.642H758.082V228.464H764.61V244.642ZM759.714 229.803V243.304H762.977V229.803H759.714Z" fill="white"/>
<path d="M772.682 244.642H779.209V228.464H772.682V244.642Z" fill="white"/>
<path d="M787.285 244.642H793.812V228.464H787.285V244.642Z" fill="white"/>
<path d="M743.48 272.188H750.007V256.011H743.48V272.188Z" fill="white"/>
<path d="M758.082 272.188H764.61V256.011H758.082V272.188Z" fill="white"/>
<path d="M772.682 272.188H779.209V256.011H772.682V272.188Z" fill="white"/>
<path d="M793.812 272.188H787.285V256.011H793.812V258.28H792.18V271.782H793.812V272.188Z" fill="white"/>
<path d="M743.48 299.737H750.007V283.56H743.48V299.737Z" fill="white"/>
<path d="M764.61 299.737H762.977V286.76H759.714V299.737H758.082V283.56H764.61V299.737Z" fill="white"/>
<path d="M775.947 299.737H772.682V283.56H779.21V286.76H775.947V299.737Z" fill="white"/>
<path d="M787.285 299.737H793.812V283.56H787.285V299.737Z" fill="white"/>
<path d="M750.007 327.286H743.48V311.109H750.007V327.286ZM743.48 312.631V326.131H746.744V312.631H743.48Z" fill="white"/>
<path d="M758.082 327.286H764.61V311.109H758.082V327.286Z" fill="white"/>
<path d="M772.682 327.286H779.209V311.109H772.682V327.286Z" fill="white"/>
<path d="M787.285 327.286H793.812V311.109H787.285V327.286Z" fill="white"/>
<path d="M743.48 354.833H750.007V338.656H743.48V354.833Z" fill="white"/>
<path d="M758.082 354.833H764.61V338.656H758.082V354.833Z" fill="white"/>
<path d="M775.947 354.833H772.682V338.656H779.21V341.482H775.947V354.833Z" fill="white"/>
<path d="M793.812 354.833H787.285V338.656H793.812V354.833Z" fill="white"/>
<path d="M750.008 382.382H743.48V366.204H750.008V382.382Z" fill="white"/>
<path d="M758.082 382.382H764.61V366.205H758.082V382.382Z" fill="white"/>
<path d="M779.21 382.382H772.682V366.204H779.21V382.382Z" fill="white"/>
<path d="M787.285 382.382H793.812V366.205H787.285V382.382Z" fill="white"/>
<path d="M763.159 190.513H741.791V179.995H763.159V190.513Z" fill="white"/>
<path d="M764.61 181.493H740.342V179.696H764.61V181.493Z" fill="white"/>
<path d="M647.781 394.616H564.092V202.208L647.781 181.738V394.616Z" fill="white"/>
<path d="M567.767 394.616H560.414V198.822H567.767V394.616Z" fill="white"/>
<path d="M588.691 394.616H581.338V193.304H588.691V394.616Z" fill="white"/>
<path d="M609.613 394.616H602.26V187.575H609.613V394.616Z" fill="white"/>
<path d="M630.535 394.616H623.182V182.904H630.535V394.616Z" fill="white"/>
<path d="M651.457 394.616H644.104V177.939H651.457V394.616Z" fill="white"/>
<path d="M579.433 230.122H569.672V215.253H572.113V223.659H576.993V215.253H579.433V230.122Z" fill="white"/>
<path d="M600.354 230.122H590.594V215.253H593.034V223.659H597.914V215.253H600.354V230.122Z" fill="white"/>
<path d="M611.518 230.122H621.279V215.253H611.518V230.122Z" fill="white"/>
<path d="M642.199 230.122H632.439V215.253H634.879V223.659H639.759V215.253H642.199V230.122Z" fill="white"/>
<path d="M569.672 256.013H579.433V241.143H569.672V256.013Z" fill="white"/>
<path d="M590.594 256.013H600.354V241.143H590.594V256.013Z" fill="white"/>
<path d="M621.279 256.013H611.518V241.143H613.958V247.331H618.838V241.143H621.279V256.013Z" fill="white"/>
<path d="M642.199 256.013H632.439V241.143H634.879V247.331H639.759V241.143H642.199V256.013Z" fill="white"/>
<path d="M579.433 281.905H569.672V267.036H572.113V271.007H576.993V267.036H579.433V281.905Z" fill="white"/>
<path d="M600.354 281.905H590.594V267.036H593.034V271.007H597.914V267.036H600.354V281.905Z" fill="white"/>
<path d="M621.279 281.905H611.518V267.036H613.958V271.007H618.838V267.036H621.279V281.905Z" fill="white"/>
<path d="M632.439 281.905H642.199V267.036H632.439V281.905Z" fill="white"/>
<path d="M579.433 307.798H576.993V304.625H572.113V307.798H569.672V292.927H572.113V294.682H576.993V292.927H579.433V307.798Z" fill="white"/>
<path d="M590.594 307.798H600.354V292.927H590.594V307.798Z" fill="white"/>
<path d="M621.279 307.798H618.838V304.625H613.958V307.798H611.518V292.927H613.958V294.682H618.838V292.927H621.279V307.798Z" fill="white"/>
<path d="M642.199 307.798H639.759V304.625H634.879V307.798H632.439V292.927H634.879V294.682H639.759V292.927H642.199V307.798Z" fill="white"/>
<path d="M579.433 333.687H576.993V328.297H572.113V333.687H569.672V318.819H579.433V333.687Z" fill="white"/>
<path d="M600.354 333.687H597.914V328.297H593.034V333.687H590.594V318.819H600.354V333.687Z" fill="white"/>
<path d="M611.518 333.687H621.279V318.818H611.518V333.687Z" fill="white"/>
<path d="M642.199 333.687H639.759V328.297H634.879V333.687H632.439V318.819H642.199V333.687Z" fill="white"/>
<path d="M579.434 359.579H569.674V344.711H579.434V359.579Z" fill="white"/>
<path d="M600.354 359.579H590.594V344.711H600.354V359.579Z" fill="white"/>
<path d="M611.518 359.579H621.279V344.71H611.518V359.579Z" fill="white"/>
<path d="M632.439 359.579H642.199V344.71H632.439V359.579Z" fill="white"/>
<path d="M569.672 385.47H579.433V370.6H569.672V385.47Z" fill="white"/>
<path d="M600.354 385.47H590.594V370.6H600.354V385.47Z" fill="white"/>
<path d="M611.518 385.47H621.279V370.6H611.518V385.47Z" fill="white"/>
<path d="M642.199 385.47H632.439V370.6H642.199V385.47Z" fill="white"/>
<path d="M325.355 211.426V213.423H323.366V219.116H358.383V394.616H300.919V228.274V219.116V213.423H298.834V211.426H325.355Z" fill="white"/>
<path d="M472.472 394.616H423.252V291.142H472.472V394.616Z" fill="white"/>
<path d="M208.721 394.616H248.731V267.421H208.721V394.616Z" fill="white"/>
<path d="M284.408 394.616H240.807V293.924H284.408V394.616Z" fill="white"/>
<path d="M223.115 277.538H240.806V262.317H223.115V277.538Z" fill="white"/>
<path d="M290.277 295.987H243.799V292.265H290.277V295.987Z" fill="white"/>
<path d="M328.609 394.616H279.725V337.112H328.609V394.616Z" fill="white"/>
<path d="M161.496 394.616H121.732V290.339H161.496V394.616Z" fill="white"/>
<path d="M139.539 394.616H87.2266V342.304H139.539V394.616Z" fill="white"/>
<path d="M62.3459 394.616H29.625V333.754H62.3459V394.616Z" fill="white"/>
<path d="M133.33 394.616H55.9922V375.552H133.33V394.616Z" fill="white"/>
<path d="M39.6375 394.616H0V369.391H39.6375V394.616Z" fill="white"/>
<path d="M223.117 394.616H161.498V356.131H223.117V394.616Z" fill="white"/>
<path d="M438.233 394.616H342.25V378.036H438.233V394.616Z" fill="white"/>
<path d="M608.405 394.616H512.424V378.036H608.405V394.616Z" fill="white"/>
<path d="M434.495 329.363H398.013L382.586 386.327H434.495V329.363Z" fill="white"/>
<path d="M452.371 309.671H451.355V246.479H452.371V309.671Z" fill="white"/>
<path d="M457.792 305.149H456.438V267.863H457.792V305.149Z" fill="white"/>
<path d="M467.633 292.927H449.176V274.469H467.633V292.927Z" fill="white"/>
<path d="M470.506 274.688H446.061V273.035H470.506V274.688Z" fill="white"/>
<path d="M523.158 394.616H463.52V341.246H523.158V394.616Z" fill="white"/>
<path d="M550.069 282.491H511.754V385.47H550.069V282.491Z" fill="white"/>
<path d="M722.612 394.616H661.396V301.852H722.612V394.616Z" fill="white"/>
<path d="M711.995 394.616H642.199V360.435H711.995V394.616Z" fill="white"/>
<path d="M719.225 394.616H764.611V382.382H719.225V394.616Z" fill="white"/>
<path d="M862.919 360.435H789.127V394.616H862.919V360.435Z" fill="white"/>
<path d="M818.527 394.616H910.35V270.943H818.527V394.616Z" fill="white"/>
<path d="M816.156 270.942H915.708V266.198H816.156V270.942Z" fill="white"/>
<path d="M865.932 278.397H906.285V253.324H865.932V278.397Z" fill="white"/>
<path d="M845.973 268.571H852.749V253.323H845.973V268.571Z" fill="white"/>
<path d="M831.74 268.571H839.195V253.323H831.74V268.571Z" fill="white"/>
<path d="M973.473 394.616H1046.16V213.998H973.473V394.616Z" fill="white"/>
<path d="M971.408 215.997H1048.22V210.89H971.408V215.997Z" fill="white"/>
<path d="M975.916 228.622H1043.71V204.355H975.916V228.622Z" fill="white"/>
<path d="M1011.68 220.94H1038.52V194.428H1011.68V220.94Z" fill="white"/>
<path d="M1022.99 201.901H1038.52V187.944H1027.38L1022.99 201.901Z" fill="white"/>
<path d="M1032.26 207.446H1030.76V176.36H1032.26V207.446Z" fill="white"/>
<path d="M1030.16 174.748C1030.16 175.639 1030.76 176.36 1031.51 176.36C1032.26 176.36 1032.86 175.639 1032.86 174.748C1032.86 173.859 1032.26 173.138 1031.51 173.138C1030.76 173.138 1030.16 173.859 1030.16 174.748Z" fill="white"/>
<path d="M1068.73 394.616H1036.21V320.052H1068.73V394.616Z" fill="white"/>
<path d="M943.553 283.699H980.649V394.616H943.553V283.699Z" fill="white"/>
<path d="M962.116 394.616H909.861V335.292L953.965 354.834L962.116 394.616Z" fill="white"/>
<path d="M1137.85 394.616H1058.05V362.398H1137.85V394.616Z" fill="white"/>
<path d="M1108.38 394.616H1154.73V266.002H1108.38V394.616Z" fill="white"/>
<path d="M1220.69 394.616H1143.89V370.602H1220.69V394.616Z" fill="white"/>
<path d="M1156.85 267.862H1106.01V263.646H1156.85V267.862Z" fill="white"/>
<path d="M1147.51 245.498H1148.52V271.417H1147.51V245.498Z" fill="white"/>
<path d="M1141.74 269.571H1140.73V248.779H1141.74V269.571Z" fill="white"/>
<path d="M1171.9 314.455H1151.23V373.38H1180.71L1171.9 314.455Z" fill="white"/>
<path d="M212.85 276.89H215.879V273.862H212.85V276.89Z" fill="white"/>
<path d="M218.934 276.89H221.962V273.862H218.934V276.89Z" fill="white"/>
<path d="M212.85 284.005H215.879V280.977H212.85V284.005Z" fill="white"/>
<path d="M218.934 284.005H221.962V280.977H218.934V284.005Z" fill="white"/>
<path d="M212.85 290.884H215.879V287.856H212.85V290.884Z" fill="white"/>
<path d="M225.699 276.89H228.727V273.862H225.699V276.89Z" fill="white"/>
<path d="M434.494 194.337H436.561V182.904H434.494V194.337Z" fill="#06153A"/>
<path d="M441.613 194.337H443.68V182.904H441.613V194.337Z" fill="#06153A"/>
<path d="M448.732 194.337H450.798V182.904H448.732V194.337Z" fill="#06153A"/>
<path d="M455.85 194.337H457.915V182.904H455.85V194.337Z" fill="#06153A"/>
<path d="M462.969 194.337H465.034V182.904H462.969V194.337Z" fill="#06153A"/>
<path d="M470.088 194.337H472.153V182.904H470.088V194.337Z" fill="#06153A"/>
<path d="M477.205 194.337H479.272V182.904H477.205V194.337Z" fill="#06153A"/>
<path d="M484.324 194.337H486.391V182.904H484.324V194.337Z" fill="#06153A"/>
<path d="M491.443 194.337H493.508V182.904H491.443V194.337Z" fill="#06153A"/>
<path d="M498.561 194.337H500.626V182.904H498.561V194.337Z" fill="#06153A"/>
<path d="M506.713 194.337H507.745V182.904H506.713V194.337Z" fill="#06153A"/>
<path d="M505.68 194.337H506.713V182.904H505.68V194.337Z" fill="#06153A"/>
<path d="M434.494 210.255H436.561V198.822H434.494V210.255Z" fill="#06153A"/>
<path d="M441.613 210.255H443.68V198.822H441.613V210.255Z" fill="#06153A"/>
<path d="M448.732 210.255H450.798V198.822H448.732V210.255Z" fill="#06153A"/>
<path d="M455.85 210.255H457.915V198.822H455.85V210.255Z" fill="#06153A"/>
<path d="M462.969 210.255H465.034V198.822H462.969V210.255Z" fill="#06153A"/>
<path d="M470.088 210.255H472.153V198.822H470.088V210.255Z" fill="#06153A"/>
<path d="M477.205 210.255H479.272V198.822H477.205V210.255Z" fill="#06153A"/>
<path d="M484.324 210.255H486.391V198.822H484.324V210.255Z" fill="#06153A"/>
<path d="M491.443 210.255H493.508V198.822H491.443V210.255Z" fill="#06153A"/>
<path d="M498.561 210.255H500.626V198.822H498.561V210.255Z" fill="#06153A"/>
<path d="M505.68 210.255H507.745V198.822H505.68V210.255Z" fill="#06153A"/>
<path d="M434.494 226.173H436.561V214.74H434.494V226.173Z" fill="#06153A"/>
<path d="M441.613 226.173H443.68V214.74H441.613V226.173Z" fill="#06153A"/>
<path d="M448.732 226.173H450.798V214.74H448.732V226.173Z" fill="#06153A"/>
<path d="M455.85 226.173H457.915V214.74H455.85V226.173Z" fill="#06153A"/>
<path d="M462.969 226.173H465.034V214.74H462.969V226.173Z" fill="#06153A"/>
<path d="M470.088 226.173H472.153V214.74H470.088V226.173Z" fill="#06153A"/>
<path d="M477.205 226.173H479.272V214.74H477.205V226.173Z" fill="#06153A"/>
<path d="M484.324 226.173H486.391V214.74H484.324V226.173Z" fill="#06153A"/>
<path d="M491.443 226.173H493.508V214.74H491.443V226.173Z" fill="#06153A"/>
<path d="M498.561 226.173H500.626V214.74H498.561V226.173Z" fill="#06153A"/>
<path d="M505.68 226.173H507.745V214.74H505.68V226.173Z" fill="#06153A"/>
<path d="M455.85 242.089H457.915V230.656H455.85V242.089Z" fill="#06153A"/>
<path d="M462.969 242.089H465.034V230.656H462.969V242.089Z" fill="#06153A"/>
<path d="M470.088 242.089H472.153V230.656H470.088V242.089Z" fill="#06153A"/>
<path d="M477.205 242.089H479.272V230.656H477.205V242.089Z" fill="#06153A"/>
<path d="M484.324 242.089H486.391V230.656H484.324V242.089Z" fill="#06153A"/>
<path d="M491.443 242.089H493.508V230.656H491.443V242.089Z" fill="#06153A"/>
<path d="M498.561 242.089H500.626V230.656H498.561V242.089Z" fill="#06153A"/>
<path d="M505.68 242.089H507.745V230.656H505.68V242.089Z" fill="#06153A"/>
<path d="M462.969 258.89H465.034V247.456H462.969V258.89Z" fill="#06153A"/>
<path d="M470.088 258.89H472.153V247.456H470.088V258.89Z" fill="#06153A"/>
<path d="M477.205 258.89H479.272V247.456H477.205V258.89Z" fill="#06153A"/>
<path d="M484.324 258.89H486.391V247.456H484.324V258.89Z" fill="#06153A"/>
<path d="M491.443 258.89H493.508V247.456H491.443V258.89Z" fill="#06153A"/>
<path d="M498.561 258.89H500.626V247.456H498.561V258.89Z" fill="#06153A"/>
<path d="M505.68 258.89H507.745V247.456H505.68V258.89Z" fill="#06153A"/>
<path d="M572.113 215.251H576.993V211.28H572.113V215.251Z" fill="#06153A"/>
<path d="M572.113 223.659H576.993V215.252H572.113V223.659Z" fill="#06153A"/>
<path d="M572.113 241.144H576.993V234.956H572.113V241.144Z" fill="#06153A"/>
<path d="M572.113 247.331H576.993V241.143H572.113V247.331Z" fill="#06153A"/>
<path d="M572.113 267.036H576.993V258.631H572.113V267.036Z" fill="#06153A"/>
<path d="M572.113 271.007H576.993V267.036H572.113V271.007Z" fill="#06153A"/>
<path d="M572.113 292.927H576.993V282.303H572.113V292.927Z" fill="#06153A"/>
<path d="M572.113 294.681H576.993V292.926H572.113V294.681Z" fill="#06153A"/>
<path d="M572.113 316.999H576.993V307.796H572.113V316.999Z" fill="#06153A"/>
<path d="M572.113 307.798H576.993V304.624H572.113V307.798Z" fill="#06153A"/>
<path d="M572.113 340.675H576.993V333.687H572.113V340.675Z" fill="#06153A"/>
<path d="M572.113 333.687H576.993V328.297H572.113V333.687Z" fill="#06153A"/>
<path d="M593.035 215.251H597.915V211.28H593.035V215.251Z" fill="#06153A"/>
<path d="M593.035 223.659H597.915V215.252H593.035V223.659Z" fill="#06153A"/>
<path d="M593.035 241.144H597.915V234.956H593.035V241.144Z" fill="#06153A"/>
<path d="M593.035 247.331H597.915V241.143H593.035V247.331Z" fill="#06153A"/>
<path d="M593.035 267.036H597.915V258.631H593.035V267.036Z" fill="#06153A"/>
<path d="M593.035 271.007H597.915V267.036H593.035V271.007Z" fill="#06153A"/>
<path d="M593.035 292.927H597.915V282.303H593.035V292.927Z" fill="#06153A"/>
<path d="M593.035 294.681H597.915V292.926H593.035V294.681Z" fill="#06153A"/>
<path d="M593.035 316.999H597.915V307.796H593.035V316.999Z" fill="#06153A"/>
<path d="M593.035 307.798H597.915V304.624H593.035V307.798Z" fill="#06153A"/>
<path d="M593.035 340.675H597.915V333.687H593.035V340.675Z" fill="#06153A"/>
<path d="M593.035 333.687H597.915V328.297H593.035V333.687Z" fill="#06153A"/>
<path d="M613.957 215.251H618.837V211.28H613.957V215.251Z" fill="#06153A"/>
<path d="M613.957 223.659H618.837V215.252H613.957V223.659Z" fill="#06153A"/>
<path d="M613.957 241.144H618.837V234.956H613.957V241.144Z" fill="#06153A"/>
<path d="M613.957 247.331H618.837V241.143H613.957V247.331Z" fill="#06153A"/>
<path d="M613.957 267.036H618.837V258.631H613.957V267.036Z" fill="#06153A"/>
<path d="M613.957 271.007H618.837V267.036H613.957V271.007Z" fill="#06153A"/>
<path d="M613.957 292.927H618.837V282.303H613.957V292.927Z" fill="#06153A"/>
<path d="M613.957 294.681H618.837V292.926H613.957V294.681Z" fill="#06153A"/>
<path d="M613.957 316.999H618.837V307.796H613.957V316.999Z" fill="#06153A"/>
<path d="M613.957 307.798H618.837V304.624H613.957V307.798Z" fill="#06153A"/>
<path d="M613.957 340.675H618.837V333.687H613.957V340.675Z" fill="#06153A"/>
<path d="M613.957 333.687H618.837V328.297H613.957V333.687Z" fill="#06153A"/>
<path d="M634.879 215.251H639.759V211.28H634.879V215.251Z" fill="#06153A"/>
<path d="M634.879 223.659H639.759V215.252H634.879V223.659Z" fill="#06153A"/>
<path d="M634.879 241.144H639.759V234.956H634.879V241.144Z" fill="#06153A"/>
<path d="M634.879 247.331H639.759V241.143H634.879V247.331Z" fill="#06153A"/>
<path d="M634.879 267.036H639.759V258.631H634.879V267.036Z" fill="#06153A"/>
<path d="M634.879 271.007H639.759V267.036H634.879V271.007Z" fill="#06153A"/>
<path d="M634.879 292.927H639.759V282.303H634.879V292.927Z" fill="#06153A"/>
<path d="M634.879 294.681H639.759V292.926H634.879V294.681Z" fill="#06153A"/>
<path d="M634.879 316.999H639.759V307.796H634.879V316.999Z" fill="#06153A"/>
<path d="M634.879 307.798H639.759V304.624H634.879V307.798Z" fill="#06153A"/>
<path d="M634.879 340.675H639.759V333.687H634.879V340.675Z" fill="#06153A"/>
<path d="M634.879 333.687H639.759V328.297H634.879V333.687Z" fill="#06153A"/>
<path d="M493.508 49.5127H497.568V38.6809H493.508V49.5127Z" fill="black"/>
<path d="M503.527 49.5127H507.587V38.6809H503.527V49.5127Z" fill="black"/>
<path d="M513.545 49.5127H517.605V38.6809H513.545V49.5127Z" fill="black"/>
<path d="M523.564 49.5127H527.624V38.6809H523.564V49.5127Z" fill="black"/>
<path d="M493.508 67.5518H497.568V56.72H493.508V67.5518Z" fill="black"/>
<path d="M503.527 67.5518H507.587V56.72H503.527V67.5518Z" fill="black"/>
<path d="M513.545 67.5518H517.605V56.72H513.545V67.5518Z" fill="black"/>
<path d="M523.564 67.5518H527.624V56.72H523.564V67.5518Z" fill="black"/>
<path d="M493.508 85.5928H497.568V74.7605H493.508V85.5928Z" fill="black"/>
<path d="M503.527 85.5928H507.587V74.7605H503.527V85.5928Z" fill="black"/>
<path d="M534.928 49.5127H538.988V38.6809H534.928V49.5127Z" fill="black"/>
<path d="M223.115 158.345H225.698V151.446H223.115V158.345Z" fill="black"/>
<path d="M223.115 151.446H225.698V148.417H223.115V151.446Z" fill="black"/>
<path d="M232.229 158.345H234.81V151.446H232.229V158.345Z" fill="black"/>
<path d="M232.229 151.446H234.81V148.417H232.229V151.446Z" fill="black"/>
<path d="M242.885 158.345H245.466V151.446H242.885V158.345Z" fill="black"/>
<path d="M242.885 151.446H245.466V148.417H242.885V151.446Z" fill="black"/>
<path d="M251.996 158.345H254.579V151.446H251.996V158.345Z" fill="black"/>
<path d="M251.996 151.446H254.579V148.417H251.996V151.446Z" fill="black"/>
<path d="M202.875 158.345H205.456V151.446H202.875V158.345Z" fill="black"/>
<path d="M202.875 151.446H205.456V148.417H202.875V151.446Z" fill="black"/>
<path d="M211.984 158.345H214.567V151.446H211.984V158.345Z" fill="black"/>
<path d="M211.984 151.446H214.567V148.417H211.984V151.446Z" fill="black"/>
<path d="M223.115 175.589H225.698V165.66H223.115V175.589Z" fill="black"/>
<path d="M232.229 175.589H234.81V165.66H232.229V175.589Z" fill="black"/>
<path d="M242.885 175.589H245.466V165.66H242.885V175.589Z" fill="black"/>
<path d="M251.996 175.589H254.579V165.66H251.996V175.589Z" fill="black"/>
<path d="M202.875 175.589H205.456V165.66H202.875V175.589Z" fill="black"/>
<path d="M211.984 175.589H214.567V165.66H211.984V175.589Z" fill="black"/>
<path d="M223.115 192.829H225.698V182.9H223.115V192.829Z" fill="black"/>
<path d="M232.229 192.829H234.81V182.9H232.229V192.829Z" fill="black"/>
<path d="M242.885 192.829H245.466V182.9H242.885V192.829Z" fill="black"/>
<path d="M251.996 192.829H254.579V182.9H251.996V192.829Z" fill="black"/>
<path d="M202.875 192.829H205.456V182.9H202.875V192.829Z" fill="black"/>
<path d="M211.984 192.829H214.567V182.9H211.984V192.829Z" fill="black"/>
<path d="M704.98 239.911H708.98V224.513H704.98V239.911Z" fill="#06153A"/>
<path d="M717.225 239.911H721.225V224.513H717.225V239.911Z" fill="#06153A"/>
<path d="M728.744 239.911H732.746V224.513H728.744V239.911Z" fill="#06153A"/>
<path d="M980.648 236.374H983.684V228.624H980.648V236.374Z" fill="#080808"/>
<path d="M980.648 228.622H983.684V227.713H980.648V228.622Z" fill="#080808"/>
<path d="M990.168 236.374H993.204V228.624H990.168V236.374Z" fill="#080808"/>
<path d="M990.168 228.622H993.204V227.713H990.168V228.622Z" fill="#080808"/>
<path d="M999.16 236.374H1002.2V228.624H999.16V236.374Z" fill="#06153A"/>
<path d="M999.16 228.622H1002.2V227.713H999.16V228.622Z" fill="#06153A"/>
<path d="M1008.68 236.374H1011.72V228.624H1008.68V236.374Z" fill="#06153A"/>
<path d="M1008.68 228.622H1011.72V227.713H1008.68V228.622Z" fill="#06153A"/>
<path d="M980.648 251.903H983.684V243.243H980.648V251.903Z" fill="#080808"/>
<path d="M990.168 251.903H993.204V243.243H990.168V251.903Z" fill="#080808"/>
<path d="M999.16 251.903H1002.2V243.243H999.16V251.903Z" fill="#06153A"/>
<path d="M1008.68 251.903H1011.72V243.243H1008.68V251.903Z" fill="#06153A"/>
<path d="M980.648 268.431H983.684V259.772H980.648V268.431Z" fill="#080808"/>
<path d="M990.168 268.431H993.204V259.772H990.168V268.431Z" fill="#080808"/>
<path d="M999.16 268.431H1002.2V259.772H999.16V268.431Z" fill="#06153A"/>
<path d="M1008.68 268.431H1011.72V259.772H1008.68V268.431Z" fill="#06153A"/>
<path d="M1019.09 236.374H1022.12V228.624H1019.09V236.374Z" fill="#06153A"/>
<path d="M1019.09 228.622H1022.12V227.713H1019.09V228.622Z" fill="#06153A"/>
<path d="M1019.09 251.903H1022.12V243.243H1019.09V251.903Z" fill="#06153A"/>
<path d="M1028.61 236.374H1031.64V228.624H1028.61V236.374Z" fill="#06153A"/>
<path d="M1028.61 228.622H1031.64V227.713H1028.61V228.622Z" fill="#06153A"/>
<path d="M743.48 215.517H746.745V202.015H743.48V215.517Z" fill="#06153A"/>
<path d="M759.715 215.517H762.977V202.015H759.715V215.517Z" fill="#06153A"/>
<path d="M775.947 215.517H779.21V202.015H775.947V215.517Z" fill="#06153A"/>
<path d="M793.812 215.517H795.444V202.015H793.812V215.517Z" fill="#06153A"/>
<path d="M792.18 215.517H793.812V202.015H792.18V215.517Z" fill="#06153A"/>
<path d="M743.48 243.304H746.745V229.802H743.48V243.304Z" fill="#06153A"/>
<path d="M759.715 243.304H762.977V229.802H759.715V243.304Z" fill="#06153A"/>
<path d="M775.947 243.304H779.21V229.802H775.947V243.304Z" fill="#06153A"/>
<path d="M793.812 243.304H795.444V229.802H793.812V243.304Z" fill="#06153A"/>
<path d="M792.18 243.304H793.812V229.802H792.18V243.304Z" fill="#06153A"/>
<path d="M743.48 271.782H746.745V258.281H743.48V271.782Z" fill="#06153A"/>
<path d="M759.715 271.782H762.977V258.281H759.715V271.782Z" fill="#06153A"/>
<path d="M775.947 271.782H779.21V258.281H775.947V271.782Z" fill="#06153A"/>
<path d="M793.812 271.782H795.444V258.281H793.812V271.782Z" fill="#06153A"/>
<path d="M792.18 271.782H793.812V258.281H792.18V271.782Z" fill="#06153A"/>
<path d="M743.48 300.261H746.745V299.737H743.48V300.261Z" fill="#06153A"/>
<path d="M743.48 299.737H746.745V286.76H743.48V299.737Z" fill="#06153A"/>
<path d="M759.715 300.261H762.977V299.737H759.715V300.261Z" fill="#06153A"/>
<path d="M759.715 299.737H762.977V286.76H759.715V299.737Z" fill="#06153A"/>
<path d="M779.21 300.261H775.947V299.737H779.21V286.759V300.261Z" fill="#06153A"/>
<path d="M775.947 299.737H779.21V286.76H775.947V299.737Z" fill="#06153A"/>
<path d="M795.444 300.261H792.18V299.737H793.812V286.759H795.444V300.261Z" fill="#06153A"/>
<path d="M792.18 299.737H793.812V286.76H792.18V299.737Z" fill="#06153A"/>
<path d="M743.48 326.13H746.745V312.63H743.48V326.13Z" fill="#06153A"/>
<path d="M759.715 326.13H762.977V312.63H759.715V326.13Z" fill="#06153A"/>
<path d="M775.947 326.13H779.21V312.63H775.947V326.13Z" fill="#06153A"/>
<path d="M743.48 354.983H746.745V354.833H743.48V354.983Z" fill="#06153A"/>
<path d="M743.48 354.833H746.745V341.482H743.48V354.833Z" fill="#06153A"/>
<path d="M759.715 354.983H762.977V354.833H759.715V354.983Z" fill="#06153A"/>
<path d="M759.715 354.833H762.977V341.482H759.715V354.833Z" fill="#06153A"/>
<path d="M779.21 354.983H775.947V354.833H779.21V341.482V354.983Z" fill="#06153A"/>
<path d="M775.947 354.833H779.21V341.482H775.947V354.833Z" fill="#06153A"/>
<path d="M793.812 326.13H795.444V312.63H793.812V326.13Z" fill="#06153A"/>
<path d="M792.18 326.13H793.812V312.63H792.18V326.13Z" fill="#06153A"/>
<path d="M1112.48 281.144H1115.82V273.394H1112.48V281.144Z" fill="#06153A"/>
<path d="M1112.48 293.655H1115.82V285.906H1112.48V293.655Z" fill="#06153A"/>
<path d="M1121.04 281.144H1124.37V273.394H1121.04V281.144Z" fill="#06153A"/>
</svg>
