<svg width="882" height="553" viewBox="0 0 882 553" fill="none" xmlns="http://www.w3.org/2000/svg">
<g opacity="0.56" clip-path="url(#clip0_842_2716)">
<path opacity="0.1" d="M882 355.879C882.018 370.887 880.245 385.842 876.719 400.429C873.39 414.23 868.404 427.578 861.87 440.18C861.89 455.144 858.96 469.965 853.246 483.794C847.533 497.623 839.149 510.189 828.574 520.771C818 531.352 805.443 539.743 791.623 545.461C777.802 551.18 762.99 554.114 748.035 554.096H167.434C140.599 554.08 114.295 546.622 91.4412 532.551C68.5874 518.48 50.0788 498.346 37.9707 474.385C27.7424 454.133 22.4306 431.752 22.4663 409.061C8.26489 383.604 0 353.156 0 320.417C0 231.372 61.0924 159.19 136.463 159.19C139.131 159.19 141.783 159.291 144.412 159.468C191.704 65.5167 298.369 0 422.296 0C498.484 0 568.127 24.7472 621.479 65.6324C641.092 52.742 663.674 45.3827 687.706 45.3827C763.069 45.3827 824.169 117.572 824.169 206.61C824.169 212.308 823.912 217.929 823.398 223.473C858.824 252.602 882 301.039 882 355.879Z" fill="#DDB9A2"/>
<path d="M443.768 158.519C442.859 163.518 439.782 174.071 429.844 173.809C422.258 173.616 416.414 166.989 416.614 159.399L419.475 56.0284L420.408 22.3173C420.408 22.3173 425.326 12.9908 430.222 54.8018V54.9561L443.822 154.099C444.04 155.566 444.022 157.058 443.768 158.519Z" fill="#06153A"/>
<path d="M437.145 168.556H422.543V199.806H437.145V168.556Z" fill="#06153A"/>
<path d="M435.572 192.385H424.339V206.101H435.572V192.385Z" fill="#06153A"/>
<path d="M430.245 54.9639C425.133 53.4751 421.656 54.609 419.451 56.0362L420.384 22.3251C420.384 22.3251 425.303 12.9986 430.199 54.8096L430.245 54.9639Z" fill="#DDB9A2"/>
<path d="M437.145 177.897V199.806H422.543V178.329C427.176 176.322 432.402 176.167 437.145 177.897Z" fill="#DDB9A2"/>
<path d="M471.523 247.548C467.429 244.54 459.303 237.15 463.89 228.325C467.391 221.59 475.902 219.229 482.633 222.739L574.233 270.629L604.108 286.243C604.108 286.243 610.323 294.728 570.617 280.843L570.471 280.797L475.447 249.554C474.042 249.095 472.718 248.419 471.523 247.548Z" fill="#06153A"/>
<path d="M443.749 210.371L437.348 223.503L465.419 237.202L471.82 224.07L443.749 210.371Z" fill="#06153A"/>
<path d="M444.702 225.342L449.626 215.24L437.305 209.228L432.381 219.33L444.702 225.342Z" fill="#06153A"/>
<path d="M570.471 280.789C574.048 276.84 574.557 273.214 574.233 270.63L604.109 286.243C604.109 286.243 610.323 294.729 570.617 280.844L570.471 280.789Z" fill="#DDB9A2"/>
<path d="M457.029 233.1L437.346 223.496L443.745 210.382L463.019 219.793C462.795 224.832 460.651 229.593 457.029 233.1Z" fill="#DDB9A2"/>
<path d="M388.165 247.548C392.259 244.54 400.385 237.15 395.798 228.325C392.297 221.59 383.786 219.229 377.055 222.739L285.455 270.629L255.58 286.243C255.58 286.243 249.366 294.728 289.071 280.843L289.218 280.797L384.241 249.562C385.646 249.101 386.971 248.421 388.165 247.548Z" fill="#06153A"/>
<path d="M415.939 210.368L387.867 224.067L394.268 237.199L422.34 223.5L415.939 210.368Z" fill="#06153A"/>
<path d="M427.305 219.326L422.381 209.224L410.06 215.236L414.984 225.338L427.305 219.326Z" fill="#06153A"/>
<path d="M289.218 280.789C285.64 276.84 285.131 273.214 285.455 270.63L255.58 286.243C255.58 286.243 249.366 294.729 289.071 280.844L289.218 280.789Z" fill="#DDB9A2"/>
<path d="M402.659 233.1L422.343 223.496L415.943 210.382L396.669 219.793C396.894 224.832 399.037 229.593 402.659 233.1Z" fill="#DDB9A2"/>
<path d="M442.982 553.394H414.34L423.437 215.874H433.884L442.982 553.394Z" fill="#06153A"/>
<path d="M429.844 221.266C435.115 221.266 439.388 216.991 439.388 211.716C439.388 206.442 435.115 202.166 429.844 202.166C424.572 202.166 420.299 206.442 420.299 211.716C420.299 216.991 424.572 221.266 429.844 221.266Z" fill="#DDB9A2"/>
<path d="M655.849 140.73C655.24 144.109 653.158 151.245 646.435 151.067C643.96 150.953 641.629 149.865 639.952 148.04C638.274 146.216 637.384 143.802 637.476 141.324L639.419 71.3872L640.044 48.584C640.044 48.584 643.374 42.2738 646.689 70.5617V70.662L655.887 137.776C656.029 138.756 656.016 139.753 655.849 140.73Z" fill="#06153A"/>
<path d="M651.369 147.511H641.493V168.655H651.369V147.511Z" fill="#06153A"/>
<path d="M650.305 163.634H642.703V172.914H650.305V163.634Z" fill="#06153A"/>
<path d="M646.705 70.6698C643.243 69.667 640.892 70.4307 639.419 71.395L640.043 48.5918C640.043 48.5918 643.374 42.2816 646.689 70.5695L646.705 70.6698Z" fill="#DDB9A2"/>
<path d="M651.369 153.829V168.64H641.493V154.129C644.625 152.767 648.16 152.659 651.369 153.829Z" fill="#DDB9A2"/>
<path d="M674.606 200.955C671.839 198.926 666.334 193.927 669.441 187.957C670.628 185.779 672.628 184.16 675.004 183.452C677.379 182.743 679.939 183.004 682.123 184.177L744.095 216.576L764.302 227.137C764.302 227.137 768.512 232.9 741.651 223.481H741.55L677.259 202.351C676.306 202.029 675.411 201.558 674.606 200.955Z" fill="#06153A"/>
<path d="M655.835 175.808L651.506 184.689L670.5 193.959L674.829 185.077L655.835 175.808Z" fill="#06153A"/>
<path d="M656.487 185.94L659.819 179.104L651.483 175.035L648.151 181.872L656.487 185.94Z" fill="#06153A"/>
<path d="M741.574 223.45C743.995 220.78 744.342 218.327 744.118 216.576L764.326 227.137C764.326 227.137 768.535 232.899 741.674 223.48L741.574 223.45Z" fill="#DDB9A2"/>
<path d="M664.823 191.189L651.478 184.686L655.803 175.807L668.855 182.171C668.71 185.581 667.267 188.807 664.823 191.189Z" fill="#DDB9A2"/>
<path d="M618.232 200.955C621 198.926 626.505 193.927 623.398 187.957C622.211 185.779 620.211 184.16 617.835 183.452C615.459 182.743 612.9 183.004 610.715 184.177L548.744 216.576L528.537 227.137C528.537 227.137 524.327 232.9 551.188 223.481H551.288L615.58 202.351C616.532 202.029 617.428 201.558 618.232 200.955Z" fill="#06153A"/>
<path d="M637.032 175.811L618.038 185.08L622.368 193.962L641.361 184.693L637.032 175.811Z" fill="#06153A"/>
<path d="M644.714 181.867L641.382 175.03L633.046 179.098L636.378 185.935L644.714 181.867Z" fill="#06153A"/>
<path d="M551.288 223.45C548.867 220.78 548.52 218.327 548.744 216.576L528.537 227.137C528.537 227.137 524.327 232.899 551.188 223.48L551.288 223.45Z" fill="#DDB9A2"/>
<path d="M628.04 191.189L641.354 184.686L637.029 175.807L623.977 182.171C624.13 185.586 625.584 188.812 628.04 191.189Z" fill="#DDB9A2"/>
<path d="M655.325 407.88L635.85 411.305L642.095 179.532H649.164L655.325 407.88Z" fill="#06153A"/>
<path d="M646.435 183.182C650.004 183.182 652.896 180.288 652.896 176.717C652.896 173.147 650.004 170.253 646.435 170.253C642.867 170.253 639.975 173.147 639.975 176.717C639.975 180.288 642.867 183.182 646.435 183.182Z" fill="#DDB9A2"/>
<path d="M213.955 140.73C213.345 144.109 211.264 151.245 204.541 151.067C202.066 150.953 199.737 149.865 198.06 148.04C196.384 146.215 195.496 143.801 195.59 141.324L197.525 71.3872L198.149 48.584C198.149 48.584 201.48 42.2738 204.795 70.5617V70.662L214.001 137.776C214.136 138.757 214.121 139.753 213.955 140.73Z" fill="#06153A"/>
<path d="M209.475 147.511H199.599V168.655H209.475V147.511Z" fill="#06153A"/>
<path d="M208.411 163.634H200.809V172.914H208.411V163.634Z" fill="#06153A"/>
<path d="M204.811 70.6698C201.357 69.667 198.997 70.4307 197.525 71.395L198.149 48.5918C198.149 48.5918 201.48 42.2816 204.795 70.5695L204.811 70.6698Z" fill="#DDB9A2"/>
<path d="M209.475 153.829V168.64H199.599V154.129C202.731 152.767 206.266 152.659 209.475 153.829Z" fill="#DDB9A2"/>
<path d="M232.735 200.955C229.967 198.926 224.47 193.927 227.577 187.956C228.763 185.779 230.761 184.16 233.136 183.452C235.511 182.744 238.069 183.004 240.252 184.176L302.224 216.576L322.439 227.137C322.439 227.137 326.64 232.899 299.78 223.48H299.679L235.395 202.351C234.44 202.029 233.543 201.557 232.735 200.955Z" fill="#06153A"/>
<path d="M213.943 175.81L209.613 184.691L228.607 193.961L232.937 185.079L213.943 175.81Z" fill="#06153A"/>
<path d="M214.59 185.938L217.923 179.102L209.587 175.033L206.254 181.87L214.59 185.938Z" fill="#06153A"/>
<path d="M299.68 223.45C302.101 220.78 302.447 218.327 302.224 216.576L322.439 227.137C322.439 227.137 326.641 232.899 299.78 223.48L299.68 223.45Z" fill="#DDB9A2"/>
<path d="M222.929 191.189L209.614 184.686L213.947 175.807L226.992 182.171C226.841 185.586 225.387 188.814 222.929 191.189Z" fill="#DDB9A2"/>
<path d="M176.338 200.955C179.114 198.926 184.611 193.927 181.504 187.957C180.317 185.779 178.317 184.16 175.941 183.452C173.565 182.743 171.006 183.004 168.821 184.177L106.85 216.576L86.6426 227.137C86.6426 227.137 82.433 232.9 109.294 223.481H109.394L173.686 202.351C174.638 202.029 175.534 201.558 176.338 200.955Z" fill="#06153A"/>
<path d="M195.136 175.808L176.142 185.077L180.472 193.959L199.465 184.69L195.136 175.808Z" fill="#06153A"/>
<path d="M202.826 181.872L199.494 175.035L191.157 179.103L194.49 185.94L202.826 181.872Z" fill="#06153A"/>
<path d="M109.394 223.45C106.981 220.78 106.634 218.327 106.85 216.576L86.6426 227.137C86.6426 227.137 82.433 232.899 109.294 223.48L109.394 223.45Z" fill="#DDB9A2"/>
<path d="M186.145 191.189L199.46 184.686L195.135 175.807L182.082 182.171C182.24 185.585 183.693 188.81 186.145 191.189Z" fill="#DDB9A2"/>
<path d="M213.43 407.88H194.048L200.208 179.532H207.27L213.43 407.88Z" fill="#06153A"/>
<path d="M204.541 183.182C208.109 183.182 211.002 180.288 211.002 176.717C211.002 173.147 208.109 170.253 204.541 170.253C200.973 170.253 198.08 173.147 198.08 176.717C198.08 180.288 200.973 183.182 204.541 183.182Z" fill="#DDB9A2"/>
<path d="M857.861 470.266C851.263 494.349 836.942 515.597 817.1 530.742C797.257 545.888 772.992 554.093 748.035 554.096H167.433C140.599 554.08 114.295 546.622 91.4411 532.551C68.5874 518.48 50.0787 498.346 37.9707 474.385C37.9707 474.385 122.123 357.916 340.672 434.009C522.115 497.18 605.804 437.442 629.019 415.333C631.531 412.95 634.501 411.101 637.747 409.897C640.993 408.693 644.45 408.159 647.908 408.328C692.37 410.434 846.388 421.219 857.884 470.25L857.861 470.266Z" fill="#06153A"/>
<path opacity="0.1" d="M161.235 560.992C213.149 560.992 255.233 556.05 255.233 549.953C255.233 543.856 213.149 538.914 161.235 538.914C109.322 538.914 67.2373 543.856 67.2373 549.953C67.2373 556.05 109.322 560.992 161.235 560.992Z" fill="#DDB9A2"/>
<path d="M208.288 540.103C208.288 540.103 202.189 539.385 198.219 536.423L197.918 536.184C198.158 535.824 198.333 535.424 198.435 535.003C198.008 534.173 197.784 533.253 197.779 532.319C197.792 531.442 197.613 530.574 197.255 529.773V525.438C197.255 525.438 195.937 524.034 195.806 520.462C195.674 516.89 195.543 499.287 195.543 499.287C195.34 498.365 195.296 497.415 195.412 496.479C195.543 494.442 195.543 493.678 195.543 493.678C195.112 492.495 194.977 491.224 195.15 489.976C195.543 488.433 194.225 486.659 194.225 486.659L196.199 476.969C196.199 476.969 197.293 443.498 194.109 433.407V433.346C194.109 433.346 194.109 433.261 194.109 433.222C194.379 426.711 190.432 415.873 192.668 408.352C194.903 400.83 195.166 399.164 195.166 399.164C195.166 399.164 185.312 374.417 182.83 368.554C181.111 364.512 179.33 360.068 177.572 357.538C177.418 357.317 177.263 357.109 177.109 356.913C177.024 356.805 176.94 356.697 176.855 356.605C177.392 355.708 177.716 354.7 177.803 353.658C177.942 351.837 177.68 349.739 179.006 348.451C179.512 348.037 180.057 347.672 180.633 347.363C181.648 346.694 182.457 345.755 182.968 344.651C183.478 343.547 183.671 342.322 183.524 341.115C183.246 339.194 182.144 337.597 180.887 336.046C181.317 333.694 181.146 331.27 180.388 329.001C179.63 326.733 178.312 324.693 176.554 323.071C176.554 322.832 176.554 322.585 176.554 322.346C176.59 320.579 176.049 318.848 175.012 317.417L175.382 317.679C175.174 317.494 174.974 317.316 174.758 317.139C174.454 316.832 174.105 316.572 173.725 316.367C170.801 314.368 167.384 313.214 163.848 313.03C160.312 312.846 156.794 313.641 153.679 315.326C152.12 316.16 150.78 317.353 149.77 318.805C147.712 321.983 148.228 326.095 147.164 329.705C146.131 333.154 143.695 336.008 141.675 339.016C139.655 342.025 137.967 345.589 138.73 349.107C139.277 351.66 141.097 353.951 141.043 356.566C140.952 357.936 140.387 359.231 139.444 360.228C138.501 361.225 137.239 361.862 135.877 362.028H135.808C135.553 362.067 135.295 362.088 135.037 362.09C137.489 363.779 140.534 364.404 143.518 364.797C143.456 365.029 143.394 365.26 143.34 365.499C140.927 374.61 138.776 386.181 138.776 386.181C138.776 386.181 140.218 397.907 137.196 407.094C134.173 416.282 134.567 435.159 134.567 435.159C134.567 435.159 142.978 430.815 143.502 433.616C144.027 436.416 143.502 437.187 143.502 437.187C143.502 437.187 145.222 438.059 147.242 438.83L147.157 439.949L146.787 444.963C146.645 446.015 146.806 447.085 147.249 448.049C147.974 449.453 147.249 453.279 147.249 453.279C147.249 453.279 146.632 453.665 147.249 455.455C147.866 457.244 146.764 459.79 146.764 459.79C146.764 459.79 145.993 469.356 145.892 471.361C145.792 473.367 143.263 479.145 143.263 479.145C143.263 479.145 145.499 481.945 143.263 482.331C141.027 482.717 140.765 486.188 140.765 486.188C140.765 486.188 138.136 488.356 138.136 489.119C138.136 489.119 126.309 501.115 123.549 520.879C123.549 520.879 120.789 523.432 121.182 525.854C121.406 527.228 120.959 527.698 120.527 527.852C121.013 527.914 121.545 528.23 121.298 529.395C120.905 531.432 119.856 535.775 119.856 535.775H120.041C117.89 538.267 114.745 542.44 114.267 546.104C114.267 546.258 114.251 546.413 114.221 546.567L113.033 549.244L123.418 553.872L124.336 552.468C124.336 552.468 128.962 557.699 134.197 558.84C135.101 559.036 136.024 559.137 136.949 559.141C139.871 559.09 142.759 558.513 145.476 557.436C145.476 557.436 149.285 552.723 139.424 551.828C139.424 551.828 133.649 545.194 134.173 542.386C134.371 541.204 134.492 540.011 134.536 538.814C134.536 538.552 134.536 538.295 134.536 538.043L135.207 538.143L135.33 536.006C135.618 535.645 135.759 535.187 135.723 534.726C135.723 533.839 134.952 533.707 135.723 533.183C136.494 532.658 136.494 533.183 136.494 531.91C136.494 530.637 135.97 531.015 137.149 529.742C138.329 528.469 137.018 526.171 137.018 526.171C137.018 526.171 139.778 524.126 139.647 521.45C139.516 518.773 148.452 501.809 150.287 501.169C152.122 500.529 152.261 497.212 152.261 497.212C152.261 497.212 154.759 497.721 155.545 497.212C156.331 496.702 158.829 492.753 158.829 492.753C158.829 492.753 168.852 467.496 168.952 457.931L169.608 455.763C169.608 455.763 173.424 460.739 172.892 464.311C172.36 467.882 175.806 470.428 175.806 470.428V481.274C176.192 483.164 176.403 485.085 176.439 487.013C176.307 488.795 177.98 490.585 177.348 492.112C176.716 493.64 177.348 496.324 177.348 496.324C177.348 496.324 177.209 499.896 177.348 500.914C177.487 501.933 176.832 513.666 180.255 518.773C180.255 518.773 181.697 522.468 180.255 524.89C178.813 527.312 181.566 529.742 181.566 529.742C181.566 529.742 179.862 532.543 181.566 534.587C182.542 535.879 182.982 537.499 182.791 539.107C182.105 541.699 181.596 545.101 182.745 547.47V547.524L183.054 551.165L193.122 550.393V548.357C193.122 548.357 200 550.185 206.406 549.19C209.86 548.658 213.176 547.3 215.203 544.399C215.257 544.438 219.328 537.426 208.288 540.103Z" fill="url(#paint0_linear_842_2716)"/>
<path d="M213.392 544.5C211.433 547.392 208.234 548.742 204.911 549.275C198.743 550.262 192.089 548.442 192.089 548.442V550.494L182.367 551.265L182.067 547.639V547.578C180.941 545.186 181.458 541.73 182.136 539.131C182.462 537.903 182.864 536.698 183.339 535.52C183.339 535.52 191.712 528.408 194.503 533.746C195.108 534.85 195.948 535.808 196.962 536.554C200.817 539.501 206.684 540.218 206.684 540.218C217.324 537.518 213.392 544.5 213.392 544.5Z" fill="#65617D"/>
<path opacity="0.1" d="M187.502 537.518C187.502 537.518 187.502 544.122 192.321 543.998C197.139 543.875 197.787 541.368 196.26 539.671C195.224 538.468 194.329 537.15 193.593 535.744L187.502 537.518Z" fill="black"/>
<path d="M146.008 557.436C143.384 558.508 140.584 559.083 137.751 559.133C136.856 559.127 135.965 559.029 135.091 558.84C130.018 557.69 125.577 552.483 125.577 552.483L124.69 553.887L114.667 549.313L115.801 546.636L115.847 546.181C116.31 542.532 119.347 538.374 121.429 535.89C122.562 534.54 123.418 533.691 123.418 533.691L135.476 535.466C135.476 535.466 135.522 537.009 135.476 538.891C135.436 540.083 135.317 541.271 135.122 542.447C134.62 545.24 140.195 551.843 140.195 551.843C149.685 552.753 146.008 557.436 146.008 557.436Z" fill="#65617D"/>
<path d="M121.892 527.952C121.689 528.021 121.471 528.037 121.26 527.999C121.466 527.947 121.68 527.931 121.892 527.952Z" fill="#444053"/>
<path opacity="0.1" d="M135.477 535.489C135.477 535.489 135.523 537.032 135.477 538.914L121.291 536.6C121.291 536.6 121.36 536.33 121.46 535.882C122.593 534.532 123.449 533.684 123.449 533.684L135.477 535.489Z" fill="black"/>
<path opacity="0.1" d="M196.939 536.523C194.795 541.483 182.043 540.31 182.043 540.31C182.107 539.91 182.13 539.504 182.113 539.099C182.439 537.872 182.84 536.666 183.316 535.489C183.316 535.489 191.688 528.377 194.479 533.715C195.085 534.819 195.924 535.777 196.939 536.523Z" fill="black"/>
<path d="M197.147 535.111C195.883 540.819 182.044 539.554 182.044 539.554C182.309 537.857 181.9 536.123 180.903 534.725C179.253 532.696 180.903 529.904 180.903 529.904C180.903 529.904 178.235 527.489 179.638 525.075C181.041 522.66 179.638 518.98 179.638 518.98C176.331 513.904 176.971 502.217 176.832 501.238C176.693 500.258 176.832 496.671 176.832 496.671C176.832 496.671 176.207 494.002 176.832 492.474C177.456 490.947 175.829 489.173 175.953 487.398C175.917 485.479 175.713 483.566 175.344 481.682V470.882C175.344 470.882 172.021 468.344 172.53 464.788C173.039 461.232 169.353 456.303 169.353 456.303L168.721 458.462C168.598 467.982 158.953 493.122 158.953 493.122C158.953 493.122 156.54 497.064 155.776 497.574C155.013 498.083 152.608 497.574 152.608 497.574C152.608 497.574 152.477 500.875 150.703 501.508C148.93 502.14 140.295 519.027 140.426 521.696C140.557 524.365 137.882 526.394 137.882 526.394C137.882 526.394 139.154 528.708 138.013 529.95C136.872 531.192 137.373 530.837 137.373 532.11C137.373 533.383 137.373 532.881 136.602 533.375C135.831 533.869 136.602 534.015 136.602 534.918C136.638 535.373 136.5 535.825 136.217 536.183L136.101 538.32L121.244 535.936C121.244 535.936 122.262 531.616 122.64 529.58C122.863 528.392 122.347 528.075 121.869 528.037C122.293 527.883 122.724 527.412 122.509 526.054C122.123 523.64 124.821 521.102 124.821 521.102C127.489 501.415 138.907 489.474 138.907 489.474C138.907 488.702 141.444 486.558 141.444 486.558C141.444 486.558 141.698 483.125 143.857 482.747C146.016 482.369 143.857 479.569 143.857 479.569C143.857 479.569 146.27 473.86 146.393 471.854C146.517 469.849 147.234 460.283 147.234 460.283C147.234 460.283 148.298 457.745 147.704 455.971C147.11 454.196 147.704 453.811 147.704 453.811C147.704 453.811 148.421 450 147.704 448.604C147.279 447.648 147.124 446.594 147.257 445.557L147.619 440.558L148.144 433.114C148.144 433.114 187.625 426.294 191.974 431.748C192.444 432.422 192.792 433.174 192.999 433.97C196.083 443.998 195.019 477.331 195.019 477.331L193.115 486.982C193.115 486.982 194.387 488.764 194.009 490.284C193.839 491.525 193.968 492.79 194.387 493.971C194.387 493.971 194.387 494.742 194.256 496.763C194.145 497.695 194.189 498.639 194.387 499.556C194.387 499.556 194.51 517.075 194.641 520.631C194.772 524.187 196.037 525.584 196.037 525.584V529.904C196.379 530.705 196.55 531.57 196.538 532.442C196.532 533.367 196.74 534.28 197.147 535.111Z" fill="#444053"/>
<path opacity="0.1" d="M137.751 559.148C136.856 559.143 135.965 559.044 135.091 558.855C130.018 557.706 125.577 552.499 125.577 552.499L124.69 553.903L114.667 549.328L115.801 546.636L115.847 546.181L126.209 551.465C126.209 551.465 134.482 555.43 137.751 559.148Z" fill="black"/>
<path opacity="0.1" d="M204.895 549.274C198.728 550.262 192.074 548.441 192.074 548.441V550.493L182.352 551.265L182.051 547.639C185.135 547.693 190.093 547.747 192.251 547.577C196.523 547.57 200.777 548.14 204.895 549.274Z" fill="black"/>
<path opacity="0.1" d="M126.857 524.681C127.363 524.635 127.874 524.701 128.352 524.874C128.853 525.173 129.328 525.514 129.771 525.892C130.104 526.07 130.419 526.279 130.712 526.517C131.082 526.88 131.236 527.42 131.606 527.782C132.284 528.453 133.402 528.299 134.304 528.623C134.405 528.623 134.513 528.708 134.528 528.808C134.543 528.908 134.459 528.993 134.374 529.055C134.151 529.182 133.898 529.249 133.641 529.249C133.385 529.249 133.132 529.182 132.909 529.055C132.462 528.801 132.05 528.49 131.683 528.129C130.979 527.504 130.173 527.003 129.301 526.648C128.106 526.178 126.024 526.047 125.269 524.874C125.623 524.604 126.394 524.689 126.857 524.681Z" fill="black"/>
<path opacity="0.1" d="M125.839 527.351C126.108 527.427 126.366 527.533 126.61 527.667L127.913 528.323C126.988 528.385 126.065 528.179 125.253 527.729C124.965 527.612 124.685 527.478 124.413 527.328C124.886 527.256 125.369 527.264 125.839 527.351Z" fill="black"/>
<path opacity="0.1" d="M127.558 529.572C127.843 529.56 128.128 529.584 128.406 529.642C128.897 529.814 129.352 530.075 129.748 530.413C130.698 531.181 131.887 531.593 133.109 531.578C132.869 531.691 132.602 531.736 132.338 531.709H129.609C128.899 531.756 128.191 531.592 127.574 531.238C127.111 531.015 125.199 530.467 125.184 529.827C125.168 529.187 127.096 529.572 127.558 529.572Z" fill="black"/>
<path opacity="0.1" d="M189.661 532.812C190.495 532.905 191.336 532.928 192.174 532.881C193.057 532.857 193.916 532.591 194.657 532.11C195.389 531.547 195.235 530.968 194.302 530.93C193.434 530.97 192.583 531.179 191.796 531.547C191.389 531.711 190.997 531.909 190.624 532.141C190.432 532.226 189.799 532.82 189.661 532.812Z" fill="black"/>
<path opacity="0.1" d="M192.698 534.201C192.621 534.51 192.298 534.679 192.005 534.795C191.287 535.067 190.534 535.233 189.769 535.289C189.576 535.289 189.036 535.289 189.106 534.988C189.175 534.687 189.977 534.78 190.17 534.757C191.024 534.628 191.869 534.443 192.698 534.201Z" fill="black"/>
<path opacity="0.1" d="M185.081 533.7C186.147 533.577 187.225 533.79 188.165 534.309C188.193 534.328 188.215 534.355 188.227 534.386C188.232 534.397 188.235 534.409 188.235 534.421C188.235 534.433 188.232 534.445 188.227 534.456C188.129 534.64 187.978 534.791 187.794 534.89C187.61 534.989 187.401 535.031 187.193 535.011C186.781 534.963 186.377 534.862 185.991 534.71C185.348 534.503 184.677 534.401 184.002 534.41C183.702 534.437 183.4 534.437 183.1 534.41C182.205 534.255 182.498 533.893 183.184 533.816C183.814 533.744 184.447 533.705 185.081 533.7Z" fill="black"/>
<path opacity="0.1" d="M150.218 483.804C148.946 482.913 147.438 482.419 145.885 482.385C147.457 482.287 149.008 482.795 150.218 483.804Z" fill="black"/>
<path opacity="0.1" d="M149.03 478.682C150.174 478.689 151.294 479.009 152.268 479.608L151.097 479.284C150.391 479.06 149.666 478.907 148.93 478.829C148.506 478.79 148.082 478.829 147.658 478.782C147.234 478.736 146.694 478.659 146.216 478.644C147.149 478.69 148.09 478.636 149.03 478.682Z" fill="black"/>
<path opacity="0.1" d="M152.846 481.119C153.201 481.188 153.617 481.343 153.695 481.705C153.695 481.489 151.181 480.78 150.873 480.679C150.356 480.494 148.699 479.769 148.321 480.27C149.778 480.664 151.351 480.81 152.846 481.119Z" fill="black"/>
<path opacity="0.1" d="M156.377 469.841C158.044 469.281 159.546 468.316 160.749 467.033C160.736 467.605 160.582 468.165 160.301 468.663C160.02 469.161 159.62 469.581 159.138 469.887C158.16 470.48 157.08 470.883 155.953 471.075C154.828 471.268 153.73 471.597 152.684 472.055C152.183 472.31 150.618 473.791 150.125 473.714C149.5 473.621 150.495 472.634 150.726 472.456C152.376 471.168 154.465 470.597 156.377 469.841Z" fill="black"/>
<path opacity="0.1" d="M187.471 486.311C186.932 486.126 180.378 487.399 180.779 486.126C181.026 485.354 183.154 485.632 183.686 485.655C184.973 485.692 186.247 485.912 187.471 486.311Z" fill="black"/>
<path d="M180.409 334.495C180.409 337.836 179.254 341.073 177.14 343.659C175.026 346.244 172.083 348.018 168.81 348.679C165.538 349.341 162.138 348.85 159.186 347.289C156.235 345.727 153.914 343.193 152.617 340.115C151.321 337.036 151.128 333.604 152.073 330.4C153.017 327.196 155.04 324.418 157.799 322.536C160.557 320.655 163.881 319.786 167.207 320.078C170.533 320.369 173.656 321.803 176.045 324.135C177.432 325.48 178.533 327.09 179.282 328.87C180.032 330.651 180.415 332.564 180.409 334.495Z" fill="#FBBEBE"/>
<path d="M173.416 340.458C173.416 340.458 168.721 354.174 171.389 356.967C174.056 359.759 152.222 361.41 152.222 361.41C152.222 361.41 161.358 345.033 160.472 340.968C159.585 336.902 173.416 340.458 173.416 340.458Z" stroke="#DDB9A2" stroke-miterlimit="10"/>
<path opacity="0.1" d="M192.968 434.008C192.968 434.34 192.968 434.656 192.968 434.965C192.714 441.445 181.165 454.521 178.497 452.361C175.829 450.201 157.681 445.881 157.681 445.881C157.681 445.881 155.013 441.692 152.222 441.692C150.637 441.554 149.087 441.153 147.635 440.504L148.159 433.06C148.159 433.06 187.625 426.294 191.974 431.748C192.438 432.436 192.774 433.202 192.968 434.008Z" fill="black"/>
<path d="M192.96 433.785C192.829 437.033 189.877 441.932 186.615 445.742C183.354 449.553 179.823 452.253 178.489 451.142C177.513 450.505 176.455 450.004 175.344 449.653C169.338 447.44 157.68 444.662 157.68 444.662C157.68 444.662 155.013 440.474 152.222 440.474C149.431 440.474 144.104 437.681 144.104 437.681C144.104 437.681 144.612 436.91 144.104 434.125C143.595 431.34 135.476 435.668 135.476 435.668C135.476 435.668 135.091 416.876 138.013 407.727C140.935 398.578 139.555 386.898 139.555 386.898C139.555 386.898 141.644 375.389 143.911 366.294C145.275 360.84 146.709 356.265 147.804 355.54C150.726 353.635 165.953 355.54 165.953 355.54C165.953 355.54 172.298 355.664 174.711 356.312C175.461 356.605 176.1 357.126 176.539 357.8C176.685 358.001 176.839 358.209 176.986 358.433C178.682 360.979 180.409 365.376 182.067 369.395C184.48 375.235 194.001 399.866 194.001 399.866C194.001 399.866 193.747 401.517 191.588 409.007C189.429 416.498 193.215 427.313 192.96 433.785Z" fill="#65617D"/>
<path d="M182.044 441.275L186.616 445.734C186.616 445.734 190.802 460.191 185.344 458.925C179.885 457.66 175.321 449.668 175.321 449.668L182.044 441.275Z" fill="#FBBEBE"/>
<path opacity="0.1" d="M193.593 401.023C182.799 400.9 180.016 385.788 180.016 385.788C180.016 385.788 179.245 370.807 177.857 368.045C177.086 366.502 176.739 362.707 176.585 359.621C178.281 362.167 180 366.564 181.666 370.583C184.079 376.392 193.593 401.023 193.593 401.023Z" fill="black"/>
<path d="M193.978 399.882C183.184 399.758 180.409 384.638 180.409 384.638C180.409 384.638 179.638 369.657 178.25 366.896C177.479 365.353 177.132 361.557 176.978 358.472C178.674 361.017 180.401 365.414 182.059 369.434C184.457 375.25 193.978 399.882 193.978 399.882Z" fill="#65617D"/>
<path opacity="0.1" d="M174.658 362.606C174.658 362.606 171.481 353.974 166.277 362.606C161.073 371.238 160.95 382.162 160.95 382.162L160.063 406.029C160.063 406.029 161.713 409.208 161.651 410.982C161.59 412.756 164.735 417.84 164.735 417.84C164.735 417.84 165.506 427.868 168.413 429.519L171.204 437.773C171.204 437.773 171.335 443.235 173.239 445.395C175.143 447.555 174.141 450.887 174.141 450.887L185.42 446.938C185.42 446.938 184.148 447.393 185.42 443.983C186.693 440.574 184.65 436.122 184.65 436.122C184.65 436.122 177.418 420.378 176.531 418.094C175.644 415.811 174.372 413.142 174.881 410.473C175.39 407.804 174.981 379.492 175.652 375.18C176.323 370.868 174.658 362.606 174.658 362.606Z" fill="black"/>
<path d="M175.829 361.411C175.829 361.411 172.653 352.779 167.449 361.411C162.245 370.043 162.121 380.966 162.121 380.966L161.235 404.834C161.235 404.834 162.885 408.012 162.823 409.786C162.761 411.561 165.907 416.644 165.907 416.644C165.907 416.644 166.678 426.673 169.585 428.324L172.376 436.578C172.376 436.578 172.507 442.04 174.411 444.2C176.315 446.36 175.321 449.692 175.321 449.692L186.592 445.735C186.592 445.735 185.32 446.198 186.592 442.788C187.864 439.378 185.821 434.927 185.821 434.927C185.821 434.927 178.59 419.182 177.703 416.899C176.816 414.616 175.544 411.946 176.053 409.277C176.562 406.608 176.161 378.297 176.824 373.977C177.487 369.657 175.829 361.411 175.829 361.411Z" fill="#444053"/>
<path opacity="0.1" d="M176.045 436.076C176.525 436.133 176.992 436.272 177.425 436.485C177.772 436.67 178.073 436.94 178.412 437.133C178.81 437.358 179.258 437.48 179.715 437.488C179.206 437.488 178.697 437.542 178.173 437.55C177.858 437.566 177.542 437.527 177.24 437.434C176.963 437.294 176.704 437.12 176.469 436.917C176.16 436.686 175.82 436.499 175.459 436.362C175.189 436.246 174.896 436.207 174.781 435.93C175.206 435.944 175.628 435.993 176.045 436.076Z" fill="black"/>
<path opacity="0.1" d="M180.339 439.486C180.817 439.486 181.295 439.378 181.781 439.347C182.479 439.321 183.179 439.357 183.871 439.455C182.851 439.966 181.704 440.17 180.571 440.041C180.245 439.956 179.902 439.956 179.576 440.041C179.222 440.188 178.196 441.353 178.104 440.319C178.011 439.285 179.754 439.509 180.339 439.486Z" fill="black"/>
<path opacity="0.1" d="M174.503 319.26L172.699 317.918C172.897 317.985 173.088 318.071 173.27 318.173C173.654 318.387 174.003 318.66 174.303 318.983C174.503 319.152 174.704 319.337 174.897 319.515L174.503 319.26Z" fill="black"/>
<path opacity="0.1" d="M176.554 357.816C176.223 358.573 175.69 359.225 175.012 359.698C174.607 359.976 174.142 360.156 173.656 360.223C172.964 360.285 172.268 360.212 171.605 360.007C170.762 359.792 169.931 359.535 169.114 359.235C167.519 358.578 165.884 358.021 164.219 357.569C161.682 356.99 158.729 357.199 156.91 359.05C155.314 360.678 154.921 363.208 153.325 364.836C151.189 367.011 147.689 366.88 144.659 366.456L143.95 366.355C145.314 360.901 146.748 356.327 147.843 355.602C150.765 353.696 165.992 355.602 165.992 355.602C165.992 355.602 172.337 355.725 174.75 356.373C175.485 356.658 176.115 357.162 176.554 357.816Z" fill="black"/>
<path opacity="0.1" d="M151.466 334.495C151.466 331.648 152.305 328.864 153.879 326.492C155.452 324.12 157.69 322.265 160.312 321.159C162.934 320.053 165.824 319.745 168.619 320.275C171.415 320.804 173.993 322.147 176.03 324.135C176.076 326.658 175.529 329.242 176.238 331.672C176.893 333.932 178.551 335.753 180.046 337.635C179.271 341.112 177.241 344.181 174.345 346.254C171.449 348.327 167.891 349.259 164.351 348.87C160.812 348.481 157.54 346.799 155.163 344.147C152.785 341.495 151.469 338.058 151.466 334.495Z" fill="black"/>
<path d="M174.858 318.759C172.051 316.213 168.514 314.615 164.749 314.191C160.984 313.768 157.182 314.54 153.88 316.398C152.362 317.235 151.067 318.422 150.102 319.862C148.113 323.032 148.621 327.121 147.581 330.716C146.594 334.149 144.235 336.987 142.284 339.973C140.333 342.958 138.707 346.522 139.439 350.001C139.971 352.547 141.752 354.83 141.69 357.43C141.619 358.877 141.006 360.244 139.973 361.259C138.94 362.274 137.563 362.862 136.116 362.907C138.568 364.643 141.629 365.221 144.597 365.646C147.565 366.07 151.119 366.201 153.263 364.018C154.859 362.398 155.252 359.86 156.848 358.24C158.667 356.381 161.62 356.173 164.157 356.759C166.693 357.345 169.029 358.572 171.543 359.227C172.207 359.427 172.903 359.497 173.594 359.436C175.76 359.143 177.017 356.736 177.186 354.56C177.325 352.748 177.063 350.657 178.35 349.376C178.828 348.965 179.345 348.601 179.892 348.289C180.88 347.606 181.662 346.666 182.153 345.569C182.644 344.473 182.825 343.263 182.676 342.071C182.082 337.767 177.425 335.082 176.207 330.909C175.498 328.486 176.045 325.902 175.999 323.38C175.953 320.857 175.004 317.98 172.63 317.131" fill="#444053"/>
<path opacity="0.1" d="M182.475 342.094C181.874 337.79 177.217 335.105 175.999 330.932C175.29 328.51 175.837 325.925 175.798 323.403C175.819 321.645 175.279 319.926 174.257 318.497L174.611 318.759C174.421 318.574 174.221 318.396 174.01 318.227C173.72 317.919 173.385 317.659 173.015 317.455C172.799 317.293 172.576 317.147 172.36 317L172.707 317.316L172.352 317.054C173.375 318.483 173.915 320.202 173.894 321.96C173.894 324.475 173.385 327.067 174.095 329.489C175.313 333.663 179.969 336.347 180.571 340.652C180.717 341.844 180.535 343.054 180.043 344.15C179.551 345.246 178.768 346.187 177.78 346.869C177.232 347.181 176.715 347.545 176.238 347.957C174.958 349.238 175.213 351.328 175.074 353.141C174.904 355.316 173.647 357.723 171.489 358.016C170.796 358.078 170.097 358.007 169.43 357.808C166.917 357.152 164.581 355.918 162.044 355.34C159.508 354.761 156.563 354.962 154.735 356.821C153.139 358.441 152.746 360.971 151.15 362.599C149.015 364.782 145.514 364.643 142.492 364.226C140.505 364 138.55 363.55 136.664 362.884C136.409 362.925 136.151 362.946 135.893 362.946C138.344 364.681 141.405 365.26 144.373 365.684C147.342 366.109 150.896 366.24 153.031 364.057C154.627 362.437 155.021 359.899 156.616 358.279C158.444 356.42 161.397 356.211 163.925 356.798C166.454 357.384 168.798 358.61 171.311 359.266C171.978 359.465 172.677 359.536 173.37 359.474C175.529 359.181 176.785 356.774 176.955 354.599C177.094 352.786 176.839 350.696 178.119 349.415C178.598 349.006 179.115 348.641 179.661 348.327C180.657 347.647 181.446 346.705 181.942 345.606C182.439 344.506 182.623 343.292 182.475 342.094Z" fill="black"/>
</g>
<defs>
<linearGradient id="paint0_linear_842_2716" x1="164.504" y1="559.149" x2="164.504" y2="312.973" gradientUnits="userSpaceOnUse">
<stop stop-color="#808080" stop-opacity="0.25"/>
<stop offset="0.54" stop-color="#808080" stop-opacity="0.12"/>
<stop offset="1" stop-color="#808080" stop-opacity="0.1"/>
</linearGradient>
<clipPath id="clip0_842_2716">
<rect width="882" height="561" fill="white"/>
</clipPath>
</defs>
</svg>
